<?xml version="1.0" encoding="UTF-8" standalone="no"?>
<!-- Created with Inkscape (http://www.inkscape.org/) -->

<svg
   version="1.1"
   id="svg20186"
   width="408.20261"
   height="250.06458"
   viewBox="0 0 408.20261 250.06458"
   sodipodi:docname="figure_results_Q1_strategies_2.svg"
   inkscape:version="1.2.2 (732a01da63, 2022-12-09)"
   xmlns:inkscape="http://www.inkscape.org/namespaces/inkscape"
   xmlns:sodipodi="http://sodipodi.sourceforge.net/DTD/sodipodi-0.dtd"
   xmlns="http://www.w3.org/2000/svg"
   xmlns:svg="http://www.w3.org/2000/svg">
  <defs
     id="defs20190">
    <rect
       x="89.693274"
       y="-73.980584"
       width="332.58528"
       height="58.922589"
       id="rect21994" />
    <clipPath
       clipPathUnits="userSpaceOnUse"
       id="clipPath20206">
      <path
         d="m 77.07,12.047 h 195.5 V 170.625 H 77.07 Z"
         id="path20204" />
    </clipPath>
    <clipPath
       clipPathUnits="userSpaceOnUse"
       id="clipPath20216">
      <path
         d="M 0,0 H 307 V 188 H 0 Z"
         id="path20214" />
    </clipPath>
    <clipPath
       clipPathUnits="userSpaceOnUse"
       id="clipPath20230">
      <path
         d="M 0,0 H 307 V 188 H 0 Z"
         id="path20228" />
    </clipPath>
    <clipPath
       clipPathUnits="userSpaceOnUse"
       id="clipPath20244">
      <path
         d="M 0,0 H 307 V 188 H 0 Z"
         id="path20242" />
    </clipPath>
    <clipPath
       clipPathUnits="userSpaceOnUse"
       id="clipPath20258">
      <path
         d="M 0,0 H 307 V 188 H 0 Z"
         id="path20256" />
    </clipPath>
    <clipPath
       clipPathUnits="userSpaceOnUse"
       id="clipPath20272">
      <path
         d="M 0,0 H 307 V 188 H 0 Z"
         id="path20270" />
    </clipPath>
    <clipPath
       clipPathUnits="userSpaceOnUse"
       id="clipPath20286">
      <path
         d="M 0,0 H 307 V 188 H 0 Z"
         id="path20284" />
    </clipPath>
    <clipPath
       clipPathUnits="userSpaceOnUse"
       id="clipPath20300">
      <path
         d="M 0,0 H 307 V 188 H 0 Z"
         id="path20298" />
    </clipPath>
    <clipPath
       clipPathUnits="userSpaceOnUse"
       id="clipPath20314">
      <path
         d="M 0,0 H 307 V 188 H 0 Z"
         id="path20312" />
    </clipPath>
    <clipPath
       clipPathUnits="userSpaceOnUse"
       id="clipPath20328">
      <path
         d="M 0,0 H 307 V 188 H 0 Z"
         id="path20326" />
    </clipPath>
    <clipPath
       clipPathUnits="userSpaceOnUse"
       id="clipPath20342">
      <path
         d="M 0,0 H 307 V 188 H 0 Z"
         id="path20340" />
    </clipPath>
    <clipPath
       clipPathUnits="userSpaceOnUse"
       id="clipPath20356">
      <path
         d="M 0,0 H 307 V 188 H 0 Z"
         id="path20354" />
    </clipPath>
    <clipPath
       clipPathUnits="userSpaceOnUse"
       id="clipPath20370">
      <path
         d="M 0,0 H 307 V 188 H 0 Z"
         id="path20368" />
    </clipPath>
    <clipPath
       clipPathUnits="userSpaceOnUse"
       id="clipPath20384">
      <path
         d="M 0,0 H 307 V 188 H 0 Z"
         id="path20382" />
    </clipPath>
    <clipPath
       clipPathUnits="userSpaceOnUse"
       id="clipPath20398">
      <path
         d="M 0,0 H 307 V 188 H 0 Z"
         id="path20396" />
    </clipPath>
    <clipPath
       clipPathUnits="userSpaceOnUse"
       id="clipPath20412">
      <path
         d="M 0,0 H 307 V 188 H 0 Z"
         id="path20410" />
    </clipPath>
    <clipPath
       clipPathUnits="userSpaceOnUse"
       id="clipPath20424">
      <path
         d="M 0,0 H 278.039 V 188 H 0 Z"
         id="path20422" />
    </clipPath>
    <clipPath
       clipPathUnits="userSpaceOnUse"
       id="clipPath20434">
      <path
         d="M 0,0 H 307 V 188 H 0 Z"
         id="path20432" />
    </clipPath>
    <clipPath
       clipPathUnits="userSpaceOnUse"
       id="clipPath20484">
      <path
         d="M 0,0 H 307 V 188 H 0 Z"
         id="path20482" />
    </clipPath>
    <clipPath
       clipPathUnits="userSpaceOnUse"
       id="clipPath20498">
      <path
         d="M 0,0 H 307 V 188 H 0 Z"
         id="path20496" />
    </clipPath>
    <clipPath
       clipPathUnits="userSpaceOnUse"
       id="clipPath20512">
      <path
         d="M 0,0 H 307 V 188 H 0 Z"
         id="path20510" />
    </clipPath>
    <clipPath
       clipPathUnits="userSpaceOnUse"
       id="clipPath20526">
      <path
         d="M 0,0 H 307 V 188 H 0 Z"
         id="path20524" />
    </clipPath>
    <clipPath
       clipPathUnits="userSpaceOnUse"
       id="clipPath20540">
      <path
         d="M 0,0 H 307 V 188 H 0 Z"
         id="path20538" />
    </clipPath>
    <clipPath
       clipPathUnits="userSpaceOnUse"
       id="clipPath20554">
      <path
         d="M 0,0 H 307 V 188 H 0 Z"
         id="path20552" />
    </clipPath>
    <clipPath
       clipPathUnits="userSpaceOnUse"
       id="clipPath20568">
      <path
         d="M 0,0 H 307 V 188 H 0 Z"
         id="path20566" />
    </clipPath>
    <clipPath
       clipPathUnits="userSpaceOnUse"
       id="clipPath20582">
      <path
         d="M 0,0 H 307 V 188 H 0 Z"
         id="path20580" />
    </clipPath>
    <clipPath
       clipPathUnits="userSpaceOnUse"
       id="clipPath20596">
      <path
         d="M 0,0 H 307 V 188 H 0 Z"
         id="path20594" />
    </clipPath>
    <clipPath
       clipPathUnits="userSpaceOnUse"
       id="clipPath20610">
      <path
         d="M 0,0 H 307 V 188 H 0 Z"
         id="path20608" />
    </clipPath>
    <clipPath
       clipPathUnits="userSpaceOnUse"
       id="clipPath20624">
      <path
         d="M 0,0 H 307 V 188 H 0 Z"
         id="path20622" />
    </clipPath>
    <clipPath
       clipPathUnits="userSpaceOnUse"
       id="clipPath20638">
      <path
         d="M 0,0 H 307 V 188 H 0 Z"
         id="path20636" />
    </clipPath>
    <clipPath
       clipPathUnits="userSpaceOnUse"
       id="clipPath20652">
      <path
         d="M 0,0 H 307 V 188 H 0 Z"
         id="path20650" />
    </clipPath>
  </defs>
  <sodipodi:namedview
     id="namedview20188"
     pagecolor="#ffffff"
     bordercolor="#000000"
     borderopacity="0.25"
     inkscape:showpageshadow="2"
     inkscape:pageopacity="0.0"
     inkscape:pagecheckerboard="0"
     inkscape:deskcolor="#d1d1d1"
     showgrid="false"
     inkscape:zoom="3.0548556"
     inkscape:cx="-29.788642"
     inkscape:cy="117.19048"
     inkscape:window-width="5120"
     inkscape:window-height="1369"
     inkscape:window-x="-8"
     inkscape:window-y="-8"
     inkscape:window-maximized="1"
     inkscape:current-layer="g20194">
    <inkscape:page
       x="0"
       y="0"
       id="page20192"
       width="408.20261"
       height="250.06458" />
  </sodipodi:namedview>
  <g
     id="g20194"
     inkscape:groupmode="layer"
     inkscape:label="Page 1"
     transform="matrix(1.3333333,0,0,1.3333333,0,1.5849477e-6)">
    <g
       id="g20196">
      <path
         d="M 105.699,169.496 V 16.184"
         style="fill:none;stroke:#000000;stroke-width:0.600001;stroke-linecap:butt;stroke-linejoin:miter;stroke-miterlimit:10;stroke-dasharray:none;stroke-opacity:1"
         id="path20198" />
    </g>
    <g
       id="g20200">
      <g
         id="g20202"
         clip-path="url(#clipPath20206)">
        <g
           id="g20208">
          <g
             id="g20210">
            <g
               id="g20212"
               clip-path="url(#clipPath20216)">
              <g
                 id="g20218">
                <path
                   d="m 170.73,56.055 h 0.899 l 0.082,-0.008 h 0.301 l 0.07,-0.012 h 0.078 l 0.07,-0.008 h 0.149 l 0.082,-0.011 h 0.07 l 0.078,-0.008 h 0.071 l 0.082,-0.012 0.078,-0.012 h 0.07 l 0.078,-0.007 h 0.071 l 0.082,-0.012 h 0.07 l 0.078,-0.008 h 0.07 l 0.082,-0.012 h 0.071 l 0.078,-0.007 0.07,-0.012 h 0.078 l 0.071,-0.008 0.082,-0.012 0.07,-0.011 0.078,-0.008 0.07,-0.012 0.082,-0.008 0.071,-0.012 0.078,-0.007 0.07,-0.012 0.078,-0.008 0.071,-0.012 0.082,-0.011 h 0.07 l 0.078,-0.008 0.07,-0.012 0.082,-0.008 0.071,-0.011 0.078,-0.008 0.07,-0.012 0.078,-0.012 0.071,-0.007 0.082,-0.012 0.078,-0.02 0.07,-0.007 0.082,-0.02 0.07,-0.023 0.079,-0.02 0.07,-0.02 0.082,-0.027 0.066,-0.031 0.082,-0.031 0.071,-0.032 0.078,-0.027 0.07,-0.039 0.082,-0.031 0.07,-0.039 0.079,-0.032 0.07,-0.039 0.082,-0.043 0.066,-0.027 0.082,-0.039 0.071,-0.031 0.078,-0.039 0.07,-0.032 0.082,-0.039 0.07,-0.031 0.079,-0.039 0.07,-0.031 0.082,-0.031 0.066,-0.028 0.082,-0.031 0.071,-0.039 0.078,-0.031 0.07,-0.032 0.082,-0.027 0.07,-0.039 0.079,-0.031 0.082,-0.039 0.07,-0.043 0.078,-0.039 0.07,-0.051 0.078,-0.039 0.071,-0.051 0.082,-0.059 0.07,-0.05 0.078,-0.059 0.071,-0.07 0.082,-0.071 0.148,-0.148 0.07,-0.082 0.078,-0.09 0.071,-0.09 0.082,-0.101 0.07,-0.098 0.078,-0.109 0.071,-0.114 0.082,-0.109 0.07,-0.117 0.078,-0.121 0.07,-0.121 0.078,-0.129 0.071,-0.129 0.082,-0.141 0.07,-0.133 0.078,-0.136 0.071,-0.133 0.082,-0.137 0.07,-0.14 0.078,-0.141 0.07,-0.152 0.078,-0.137 0.082,-0.141 0.071,-0.152 0.078,-0.137 0.07,-0.152 0.082,-0.149 0.071,-0.152 0.078,-0.16 0.07,-0.168 0.082,-0.16 0.066,-0.172 0.082,-0.18 0.071,-0.187 0.078,-0.192 0.07,-0.191 0.082,-0.199 0.071,-0.211 0.078,-0.207 0.07,-0.211 0.082,-0.211 0.066,-0.219 0.082,-0.223 0.071,-0.207 0.078,-0.222 0.07,-0.207 0.082,-0.223 0.071,-0.207 0.078,-0.211 0.07,-0.211 0.082,-0.199 0.066,-0.211 0.082,-0.219 0.071,-0.211 0.078,-0.218 0.07,-0.231 0.082,-0.23 0.078,-0.243 0.071,-0.25 0.082,-0.257 0.07,-0.262 0.078,-0.277 0.07,-0.282 0.079,-0.301 0.07,-0.3 0.082,-0.297 0.07,-0.313 0.078,-0.32 0.071,-0.309 0.082,-0.32 0.07,-0.32 0.078,-0.309 0.07,-0.32 0.079,-0.313 0.07,-0.296 0.082,-0.313 0.07,-0.289 0.078,-0.301 0.071,-0.289 0.082,-0.281 0.07,-0.289 0.078,-0.281 0.07,-0.278 0.079,-0.269 0.07,-0.282 0.082,-0.281 0.07,-0.277 0.078,-0.281 0.071,-0.282 0.082,-0.277 0.07,-0.281 0.078,-0.282 0.078,-0.277 0.071,-0.281 0.082,-0.27 0.07,-0.269 0.078,-0.262 0.07,-0.25 0.082,-0.25 0.071,-0.23 0.078,-0.219 0.07,-0.211 0.078,-0.199 0.071,-0.18 0.082,-0.172 0.07,-0.16 0.078,-0.148 0.07,-0.141 0.082,-0.141 0.071,-0.129 0.078,-0.128 0.07,-0.133 0.078,-0.129 0.071,-0.141 0.082,-0.148 0.07,-0.16 0.078,-0.172 0.07,-0.188 0.082,-0.199 0.071,-0.211 0.078,-0.223 0.07,-0.238 0.078,-0.25 0.071,-0.262 0.082,-0.269 0.07,-0.258 0.078,-0.269 0.082,-0.27 0.07,-0.262 0.079,-0.261 0.07,-0.239 0.082,-0.23 0.066,-0.211 0.082,-0.188 0.071,-0.179 0.078,-0.153 0.07,-0.14 0.082,-0.117 0.07,-0.09 0.079,-0.082 0.07,-0.071 0.082,-0.05 0.066,-0.04 0.082,-0.019 0.071,-0.02 0.078,-0.011 0.07,-0.008 h 0.082 l 0.07,0.008 h 0.079 l 0.07,0.023 0.082,0.008 0.066,0.031 0.082,0.028 0.071,0.031 0.078,0.039 0.07,0.062 0.082,0.059 0.149,0.148 0.152,0.204 0.078,0.109 0.07,0.129 0.078,0.129 0.071,0.152 0.082,0.148 0.07,0.172 0.078,0.168 0.071,0.18 0.082,0.18 0.07,0.203 0.078,0.187 0.07,0.211 0.078,0.211 0.071,0.211 0.082,0.219 0.07,0.23 0.078,0.231 0.071,0.238 0.082,0.238 0.07,0.243 0.078,0.25 0.07,0.25 0.078,0.25 0.071,0.25 0.082,0.257 0.07,0.262 0.078,0.25 0.071,0.262 0.082,0.25 0.07,0.25 0.078,0.25 0.07,0.25 0.078,0.25 0.071,0.25 0.082,0.238 0.078,0.25 0.07,0.238 0.082,0.243 0.071,0.238 0.078,0.242 0.07,0.238 0.082,0.25 0.066,0.243 0.082,0.25 0.071,0.238 0.078,0.25 0.07,0.25 0.082,0.262 0.071,0.257 0.078,0.262 0.07,0.27 0.082,0.269 0.066,0.27 0.082,0.281 0.071,0.289 0.078,0.289 0.07,0.293 0.082,0.297 0.071,0.301 0.078,0.3 0.07,0.309 0.082,0.313 0.066,0.308 0.082,0.309 0.071,0.312 0.078,0.301 0.07,0.309 0.082,0.3 0.071,0.289 0.078,0.289 0.082,0.29 0.07,0.273 0.078,0.27 0.07,0.257 0.079,0.25 0.07,0.25 0.082,0.243 0.07,0.218 0.078,0.231 0.071,0.211 0.082,0.207 0.07,0.203 0.078,0.199 0.07,0.199 0.079,0.192 0.07,0.187 0.082,0.192 0.07,0.179 0.078,0.192 0.071,0.179 0.082,0.188 0.07,0.18 0.078,0.183 0.07,0.18 0.079,0.18 0.07,0.179 0.082,0.18 0.07,0.18 0.078,0.179 0.071,0.18 0.082,0.172 0.07,0.168 0.078,0.179 0.07,0.172 0.079,0.168 0.082,0.172 0.07,0.16 0.078,0.168 0.07,0.16 0.082,0.172 0.071,0.149 0.078,0.16 0.07,0.16 0.078,0.149 0.071,0.152 0.082,0.141 0.07,0.14 0.078,0.137 0.07,0.133 0.082,0.129 0.071,0.121 0.078,0.117 0.07,0.113 0.078,0.11 0.071,0.109 0.082,0.098 0.07,0.101 0.078,0.09 0.07,0.09 0.082,0.09 0.071,0.089 0.078,0.083 0.07,0.089 0.078,0.078 0.071,0.083 0.082,0.089 0.07,0.078 0.078,0.083 0.07,0.078 0.161,0.16 0.07,0.082 0.082,0.078 0.066,0.082 0.082,0.066 0.071,0.071 0.078,0.07 0.07,0.07 0.082,0.063 0.07,0.058 0.079,0.059 0.07,0.063 0.082,0.046 0.066,0.051 0.082,0.051 0.071,0.051 0.078,0.051 0.07,0.046 0.082,0.043 0.07,0.051 0.079,0.039 0.07,0.039 0.082,0.039 0.066,0.039 0.082,0.043 0.071,0.039 0.078,0.032 0.07,0.039 0.082,0.039 0.07,0.031 0.079,0.027 0.07,0.043 0.082,0.028 0.066,0.031 0.082,0.031 0.078,0.039 0.071,0.032 0.082,0.027 0.07,0.019 0.078,0.032 0.071,0.031 0.082,0.019 0.07,0.032 0.078,0.019 0.07,0.02 0.078,0.019 0.071,0.02 0.082,0.012 0.07,0.019 0.078,0.008 0.071,0.012 0.082,0.007 0.07,0.012 0.078,0.012 0.07,0.008 h 0.078 l 0.071,0.011 0.082,0.008 h 0.07 l 0.078,0.012 0.071,0.008 0.082,0.011 h 0.07 l 0.078,0.012 0.07,0.008 0.078,0.012 0.071,0.007 0.082,0.012 0.07,0.008 0.078,0.012 0.082,0.008 0.071,0.011 0.078,0.012 0.07,0.02 0.082,0.007 0.066,0.012 0.082,0.008 0.071,0.012 0.078,0.007 0.07,0.012 0.082,0.012 v 0.09 h -37.57 v -0.032 h 0.07 l 0.078,-0.011 z"
                   style="fill:#417884;fill-opacity:1;fill-rule:nonzero;stroke:none"
                   id="path20220" />
              </g>
            </g>
          </g>
        </g>
        <g
           id="g20222">
          <g
             id="g20224">
            <g
               id="g20226"
               clip-path="url(#clipPath20230)">
              <g
                 id="g20232">
                <path
                   d="m 136.68,100.055 h 0.402 l 0.059,-0.008 h 0.058 l 0.063,-0.012 h 0.047 l 0.062,-0.008 0.059,-0.019 0.058,-0.012 0.063,-0.012 0.058,-0.019 0.051,-0.02 0.059,-0.019 0.062,-0.02 0.117,-0.039 0.051,-0.031 0.063,-0.02 0.058,-0.031 0.059,-0.019 0.062,-0.032 0.059,-0.019 0.051,-0.027 0.058,-0.032 0.063,-0.019 0.058,-0.032 0.059,-0.027 0.051,-0.023 0.058,-0.028 0.063,-0.019 0.059,-0.031 0.062,-0.02 0.047,-0.031 0.062,-0.031 0.059,-0.02 0.059,-0.027 0.062,-0.032 0.059,-0.031 0.05,-0.027 0.059,-0.031 0.063,-0.032 0.058,-0.039 0.059,-0.031 0.051,-0.039 0.062,-0.031 0.117,-0.078 0.063,-0.039 0.058,-0.043 0.051,-0.04 0.117,-0.078 0.063,-0.043 0.058,-0.046 0.051,-0.043 0.059,-0.04 0.062,-0.05 0.059,-0.039 0.058,-0.051 0.063,-0.047 0.051,-0.063 0.058,-0.05 0.059,-0.059 0.062,-0.058 0.059,-0.071 0.051,-0.07 0.058,-0.07 0.063,-0.082 0.058,-0.09 0.059,-0.078 0.051,-0.09 0.058,-0.102 0.063,-0.097 0.059,-0.102 0.062,-0.109 0.059,-0.102 0.05,-0.109 0.118,-0.219 0.062,-0.121 0.059,-0.11 0.05,-0.121 0.059,-0.109 0.063,-0.121 0.058,-0.117 0.059,-0.133 0.062,-0.117 0.051,-0.133 0.059,-0.137 0.058,-0.14 0.063,-0.141 0.058,-0.152 0.051,-0.161 0.059,-0.156 0.058,-0.183 0.063,-0.18 0.058,-0.18 0.051,-0.199 0.059,-0.199 0.062,-0.211 0.059,-0.219 0.058,-0.23 0.063,-0.231 0.051,-0.238 0.058,-0.242 0.059,-0.239 0.062,-0.25 0.059,-0.242 0.051,-0.25 0.058,-0.238 0.063,-0.231 0.117,-0.461 0.063,-0.21 0.046,-0.207 0.063,-0.204 0.059,-0.187 0.062,-0.192 0.059,-0.179 0.05,-0.168 0.059,-0.16 0.059,-0.172 0.062,-0.16 0.059,-0.161 0.05,-0.167 0.059,-0.161 0.063,-0.179 0.058,-0.18 0.059,-0.191 0.062,-0.192 0.051,-0.207 0.059,-0.223 0.058,-0.23 0.063,-0.238 0.058,-0.25 0.051,-0.27 0.059,-0.269 0.058,-0.282 0.063,-0.289 0.058,-0.3 0.063,-0.309 0.047,-0.32 0.062,-0.313 0.059,-0.328 0.058,-0.332 0.063,-0.328 0.051,-0.332 0.058,-0.34 0.059,-0.328 0.062,-0.34 0.059,-0.34 0.051,-0.34 0.058,-0.339 0.063,-0.34 0.117,-0.68 0.063,-0.34 0.046,-0.344 0.063,-0.339 0.059,-0.34 0.062,-0.348 0.059,-0.34 0.05,-0.351 0.059,-0.34 0.059,-0.348 0.062,-0.351 0.059,-0.352 0.058,-0.348 0.051,-0.351 0.063,-0.34 0.058,-0.352 0.059,-0.347 0.062,-0.34 0.051,-0.34 0.059,-0.332 0.058,-0.328 0.063,-0.332 0.058,-0.32 0.051,-0.317 0.059,-0.312 0.058,-0.301 0.063,-0.297 0.058,-0.301 0.063,-0.289 0.047,-0.281 0.062,-0.281 0.059,-0.282 0.058,-0.269 0.063,-0.27 0.051,-0.269 0.058,-0.258 0.059,-0.262 0.062,-0.261 0.118,-0.5 0.05,-0.25 0.063,-0.239 0.058,-0.25 0.059,-0.238 0.063,-0.23 0.046,-0.231 0.063,-0.23 0.059,-0.219 0.062,-0.223 0.059,-0.219 0.05,-0.199 0.059,-0.199 0.059,-0.203 0.062,-0.188 0.059,-0.179 0.058,-0.172 0.051,-0.168 0.063,-0.16 0.058,-0.16 0.059,-0.153 0.062,-0.14 0.051,-0.149 0.059,-0.141 0.058,-0.128 0.063,-0.141 0.058,-0.141 0.059,-0.129 0.051,-0.14 0.058,-0.141 0.063,-0.14 0.058,-0.137 0.063,-0.141 0.047,-0.14 0.062,-0.129 0.059,-0.141 0.058,-0.129 0.063,-0.121 0.059,-0.109 0.05,-0.102 0.059,-0.078 0.062,-0.07 0.059,-0.043 0.059,-0.02 0.05,0.012 0.063,0.039 0.058,0.059 0.059,0.089 0.063,0.133 0.046,0.16 0.063,0.18 0.059,0.219 0.062,0.23 0.059,0.262 0.058,0.27 0.051,0.289 0.059,0.3 0.062,0.309 0.059,0.301 0.058,0.308 0.051,0.301 0.063,0.289 0.058,0.293 0.059,0.27 0.062,0.25 0.059,0.238 0.051,0.23 0.058,0.219 0.063,0.199 0.117,0.383 0.051,0.168 0.058,0.18 0.063,0.172 0.058,0.168 0.063,0.179 0.047,0.184 0.062,0.18 0.117,0.398 0.063,0.219 0.059,0.223 0.05,0.238 0.059,0.25 0.062,0.262 0.059,0.269 0.059,0.277 0.05,0.301 0.063,0.301 0.058,0.309 0.059,0.332 0.063,0.328 0.058,0.34 0.051,0.351 0.059,0.352 0.062,0.359 0.059,0.371 0.058,0.379 0.051,0.379 0.059,0.379 0.062,0.39 0.059,0.379 0.058,0.391 0.051,0.391 0.063,0.379 0.058,0.39 0.059,0.383 0.062,0.379 0.059,0.371 0.051,0.367 0.058,0.36 0.063,0.351 0.058,0.352 0.059,0.347 0.051,0.34 0.058,0.332 0.063,0.321 0.058,0.32 0.063,0.32 0.058,0.309 0.051,0.308 0.059,0.313 0.058,0.297 0.063,0.312 0.059,0.301 0.05,0.309 0.059,0.308 0.062,0.301 0.059,0.309 0.059,0.32 0.05,0.312 0.063,0.321 0.058,0.308 0.059,0.321 0.063,0.32 0.058,0.308 0.051,0.313 0.059,0.309 0.062,0.3 0.059,0.301 0.058,0.289 0.051,0.289 0.059,0.27 0.062,0.269 0.059,0.262 0.058,0.258 0.063,0.242 0.051,0.238 0.058,0.231 0.059,0.219 0.062,0.222 0.059,0.219 0.051,0.211 0.058,0.211 0.063,0.199 0.117,0.398 0.051,0.2 0.058,0.191 0.063,0.192 0.058,0.187 0.063,0.191 0.058,0.18 0.051,0.18 0.059,0.172 0.058,0.168 0.063,0.172 0.059,0.148 0.05,0.148 0.059,0.153 0.062,0.14 0.118,0.258 0.062,0.121 0.051,0.121 0.058,0.11 0.059,0.121 0.063,0.097 0.058,0.11 0.051,0.113 0.059,0.11 0.062,0.097 0.059,0.11 0.058,0.113 0.051,0.109 0.059,0.117 0.062,0.114 0.059,0.117 0.058,0.121 0.063,0.109 0.051,0.121 0.058,0.122 0.059,0.117 0.062,0.113 0.059,0.109 0.051,0.11 0.058,0.109 0.063,0.102 0.058,0.097 0.059,0.102 0.062,0.09 0.047,0.09 0.063,0.078 0.058,0.082 0.063,0.078 0.058,0.082 0.051,0.07 0.117,0.141 0.063,0.07 0.059,0.067 0.062,0.062 0.047,0.07 0.062,0.059 0.059,0.059 0.059,0.062 0.062,0.07 0.051,0.059 0.058,0.059 0.059,0.062 0.063,0.059 0.058,0.05 0.051,0.059 0.059,0.051 0.062,0.051 0.117,0.101 0.063,0.047 0.047,0.043 0.062,0.039 0.117,0.078 0.063,0.043 0.051,0.027 0.117,0.063 0.062,0.02 0.059,0.019 0.058,0.027 0.051,0.024 0.063,0.008 0.058,0.019 0.059,0.012 0.062,0.019 0.047,0.012 0.063,0.008 0.058,0.012 0.063,0.019 0.058,0.008 0.051,0.012 0.059,0.008 0.058,0.023 0.063,0.008 0.059,0.012 0.062,0.019 0.047,0.02 0.062,0.019 0.059,0.012 0.059,0.019 0.062,0.02 0.051,0.031 0.117,0.039 0.063,0.02 0.058,0.019 0.059,0.012 0.051,0.02 0.062,0.019 0.059,0.008 0.058,0.019 0.063,0.012 0.047,0.012 0.062,0.008 0.059,0.011 h 0.058 l 0.063,0.008 h 0.051 l 0.058,0.012 h 0.059 l 0.062,0.008 h 0.168 l 0.063,0.011 h 0.179 l 0.047,0.012 h 0.184 l 0.058,0.008 h 0.11 v 0.059 h -29.07 v -0.098 h 0.351 z"
                   style="fill:#417884;fill-opacity:1;fill-rule:nonzero;stroke:none"
                   id="path20234" />
              </g>
            </g>
          </g>
        </g>
        <g
           id="g20236">
          <g
             id="g20238">
            <g
               id="g20240"
               clip-path="url(#clipPath20244)">
              <g
                 id="g20246">
                <path
                   d="m 93.531,144.137 h 0.129 l 0.059,0.008 h 0.121 l 0.058,0.011 h 0.122 l 0.062,0.012 h 0.117 l 0.063,0.008 h 0.367 l 0.062,-0.008 h 0.118 l 0.062,-0.012 h 0.117 l 0.063,-0.011 h 0.07 l 0.059,-0.008 h 0.121 l 0.058,-0.012 h 0.18 l 0.063,-0.008 h 0.308 l 0.059,-0.012 h 0.179 l 0.063,-0.007 h 0.059 l 0.062,-0.012 h 0.059 l 0.058,-0.008 0.063,-0.012 0.058,-0.011 0.071,-0.008 0.058,-0.012 0.063,-0.019 0.058,-0.008 0.059,-0.012 0.062,-0.019 0.059,-0.012 0.059,-0.008 0.062,-0.019 0.059,-0.012 0.058,-0.02 0.063,-0.011 0.058,-0.008 0.071,-0.02 0.058,-0.012 0.063,-0.019 0.058,-0.008 0.063,-0.023 0.058,-0.008 0.059,-0.02 0.063,-0.011 0.117,-0.039 0.062,-0.012 0.059,-0.02 0.07,-0.019 0.059,-0.02 0.062,-0.019 0.059,-0.02 0.058,-0.031 0.063,-0.02 0.059,-0.019 0.062,-0.031 0.059,-0.02 0.058,-0.031 0.063,-0.02 0.058,-0.027 0.059,-0.031 0.07,-0.02 0.063,-0.031 0.058,-0.031 0.059,-0.02 0.062,-0.027 0.059,-0.031 0.059,-0.02 0.062,-0.031 0.059,-0.031 0.058,-0.04 0.063,-0.027 0.058,-0.043 0.071,-0.039 0.058,-0.039 0.063,-0.051 0.058,-0.051 0.063,-0.058 0.058,-0.063 0.059,-0.066 0.063,-0.07 0.058,-0.071 0.059,-0.082 0.062,-0.078 0.059,-0.09 0.07,-0.101 0.059,-0.098 0.062,-0.101 0.117,-0.219 0.063,-0.113 0.059,-0.118 0.062,-0.109 0.117,-0.242 0.063,-0.121 0.058,-0.11 0.059,-0.117 0.07,-0.113 0.063,-0.11 0.058,-0.097 0.059,-0.113 0.062,-0.098 0.059,-0.102 0.059,-0.09 0.062,-0.097 0.117,-0.18 0.063,-0.094 0.058,-0.089 0.071,-0.09 0.058,-0.09 0.063,-0.098 0.058,-0.09 0.063,-0.101 0.117,-0.219 0.063,-0.109 0.058,-0.133 0.059,-0.129 0.062,-0.141 0.059,-0.148 0.058,-0.16 0.071,-0.16 0.062,-0.18 0.059,-0.192 0.058,-0.21 0.063,-0.207 0.059,-0.223 0.062,-0.231 0.117,-0.476 0.063,-0.262 0.058,-0.262 0.059,-0.269 0.07,-0.277 0.063,-0.293 0.117,-0.579 0.062,-0.308 0.059,-0.313 0.059,-0.32 0.062,-0.328 0.117,-0.68 0.063,-0.351 0.058,-0.36 0.063,-0.359 0.066,-0.371 0.063,-0.379 0.058,-0.391 0.063,-0.379 0.058,-0.39 0.059,-0.403 0.063,-0.386 0.058,-0.403 0.059,-0.398 0.062,-0.391 0.059,-0.39 0.058,-0.399 0.071,-0.39 0.062,-0.379 0.059,-0.391 0.058,-0.379 0.063,-0.39 0.059,-0.383 0.062,-0.367 0.059,-0.383 0.058,-0.367 0.063,-0.383 0.058,-0.367 0.059,-0.383 0.07,-0.367 0.063,-0.383 0.058,-0.367 0.059,-0.383 0.062,-0.379 0.118,-0.758 0.062,-0.383 0.059,-0.39 0.058,-0.387 0.063,-0.391 0.058,-0.402 0.063,-0.387 0.066,-0.402 0.063,-0.399 0.058,-0.402 0.063,-0.391 0.117,-0.796 0.063,-0.391 0.117,-0.781 0.062,-0.379 0.117,-0.742 0.071,-0.36 0.062,-0.347 0.059,-0.352 0.058,-0.328 0.063,-0.332 0.059,-0.321 0.062,-0.308 0.059,-0.289 0.058,-0.293 0.063,-0.277 0.058,-0.27 0.059,-0.262 0.062,-0.25 0.071,-0.238 0.058,-0.242 0.059,-0.219 0.062,-0.223 0.059,-0.218 0.059,-0.211 0.062,-0.2 0.059,-0.199 0.058,-0.191 0.063,-0.188 0.058,-0.179 0.063,-0.18 0.066,-0.172 0.063,-0.16 0.058,-0.148 0.063,-0.141 0.058,-0.129 0.059,-0.121 0.063,-0.109 0.058,-0.09 0.059,-0.082 0.062,-0.071 0.059,-0.05 0.058,-0.047 0.063,-0.02 0.07,-0.023 0.059,-0.008 0.058,0.008 0.063,0.011 0.059,0.02 0.062,0.039 0.059,0.031 0.058,0.051 0.063,0.051 0.058,0.058 0.059,0.071 0.062,0.07 0.071,0.078 0.058,0.09 0.059,0.102 0.062,0.101 0.118,0.219 0.062,0.121 0.117,0.258 0.063,0.129 0.058,0.14 0.063,0.141 0.066,0.148 0.063,0.141 0.058,0.16 0.063,0.153 0.058,0.16 0.059,0.168 0.063,0.172 0.117,0.359 0.062,0.199 0.117,0.422 0.063,0.227 0.07,0.23 0.117,0.5 0.063,0.27 0.059,0.273 0.062,0.289 0.117,0.578 0.063,0.301 0.058,0.309 0.059,0.312 0.062,0.309 0.071,0.312 0.058,0.317 0.059,0.312 0.062,0.32 0.059,0.309 0.059,0.32 0.062,0.321 0.059,0.308 0.058,0.32 0.063,0.321 0.058,0.332 0.063,0.32 0.058,0.328 0.071,0.34 0.058,0.34 0.063,0.34 0.058,0.351 0.059,0.348 0.063,0.359 0.058,0.364 0.059,0.359 0.062,0.371 0.059,0.36 0.058,0.367 0.063,0.371 0.07,0.359 0.059,0.36 0.058,0.363 0.063,0.359 0.059,0.36 0.062,0.359 0.117,0.719 0.063,0.363 0.058,0.367 0.059,0.371 0.062,0.371 0.059,0.379 0.07,0.391 0.059,0.391 0.062,0.39 0.059,0.399 0.059,0.41 0.062,0.41 0.059,0.398 0.058,0.41 0.063,0.403 0.058,0.41 0.063,0.387 0.058,0.39 0.071,0.391 0.058,0.379 0.063,0.363 0.058,0.36 0.059,0.347 0.063,0.352 0.058,0.328 0.059,0.332 0.062,0.32 0.059,0.321 0.058,0.296 0.063,0.313 0.07,0.289 0.059,0.301 0.058,0.281 0.063,0.289 0.059,0.27 0.062,0.281 0.059,0.269 0.058,0.258 0.063,0.262 0.117,0.5 0.062,0.23 0.059,0.239 0.07,0.218 0.059,0.223 0.062,0.211 0.059,0.199 0.059,0.188 0.062,0.179 0.059,0.172 0.058,0.16 0.063,0.149 0.058,0.14 0.063,0.141 0.058,0.121 0.071,0.117 0.058,0.114 0.063,0.097 0.058,0.102 0.059,0.09 0.063,0.09 0.058,0.078 0.059,0.09 0.062,0.082 0.059,0.089 0.058,0.079 0.063,0.089 0.059,0.094 0.07,0.09 0.058,0.09 0.063,0.097 0.059,0.102 0.062,0.098 0.117,0.203 0.063,0.097 0.058,0.102 0.059,0.098 0.062,0.09 0.059,0.089 0.07,0.094 0.059,0.09 0.062,0.078 0.059,0.082 0.059,0.067 0.062,0.07 0.059,0.07 0.058,0.063 0.063,0.058 0.121,0.121 0.058,0.051 0.059,0.047 0.07,0.051 0.063,0.051 0.117,0.101 0.063,0.039 0.058,0.051 0.059,0.039 0.062,0.051 0.117,0.078 0.063,0.039 0.059,0.031 0.07,0.039 0.058,0.032 0.063,0.039 0.059,0.031 0.062,0.031 0.059,0.027 0.058,0.02 0.063,0.031 0.117,0.039 0.062,0.032 0.059,0.019 0.07,0.02 0.059,0.011 0.062,0.02 0.059,0.019 0.059,0.012 0.062,0.008 0.059,0.019 0.058,0.012 0.063,0.008 0.058,0.012 0.063,0.008 0.117,0.023 0.07,0.008 0.063,0.012 0.058,0.007 0.059,0.012 0.063,0.008 h 0.058 l 0.059,0.012 0.062,0.007 0.117,0.024 h 0.063 l 0.059,0.008 0.07,0.011 0.058,0.008 0.063,0.012 0.059,0.008 0.062,0.011 0.059,0.012 h 0.058 l 0.063,0.008 v 0.109 H 93.109 v -0.07 h 0.36 z"
                   style="fill:#417884;fill-opacity:1;fill-rule:nonzero;stroke:none"
                   id="path20248" />
              </g>
            </g>
          </g>
        </g>
        <g
           id="g20250">
          <g
             id="g20252">
            <g
               id="g20254"
               clip-path="url(#clipPath20258)">
              <g
                 id="g20260">
                <path
                   d="m 180.629,56.098 h 19.562"
                   style="fill:none;stroke:#000000;stroke-width:1.28;stroke-linecap:butt;stroke-linejoin:round;stroke-miterlimit:10;stroke-dasharray:none;stroke-opacity:1"
                   id="path20262" />
              </g>
            </g>
          </g>
        </g>
        <g
           id="g20264">
          <g
             id="g20266">
            <g
               id="g20268"
               clip-path="url(#clipPath20272)">
              <g
                 id="g20274">
                <path
                   d="m 142.648,100.145 h 15.903"
                   style="fill:none;stroke:#000000;stroke-width:1.28;stroke-linecap:butt;stroke-linejoin:round;stroke-miterlimit:10;stroke-dasharray:none;stroke-opacity:1"
                   id="path20276" />
              </g>
            </g>
          </g>
        </g>
        <g
           id="g20278">
          <g
             id="g20280">
            <g
               id="g20282"
               clip-path="url(#clipPath20286)">
              <g
                 id="g20288">
                <path
                   d="m 102.23,144.195 h 15.11"
                   style="fill:none;stroke:#000000;stroke-width:1.28;stroke-linecap:butt;stroke-linejoin:round;stroke-miterlimit:10;stroke-dasharray:none;stroke-opacity:1"
                   id="path20290" />
              </g>
            </g>
          </g>
        </g>
        <g
           id="g20292">
          <g
             id="g20294">
            <g
               id="g20296"
               clip-path="url(#clipPath20300)">
              <g
                 id="g20302">
                <path
                   d="m 185.512,56.098 h 9.457"
                   style="fill:none;stroke:#000000;stroke-width:2.99;stroke-linecap:butt;stroke-linejoin:round;stroke-miterlimit:10;stroke-dasharray:none;stroke-opacity:1"
                   id="path20304" />
              </g>
            </g>
          </g>
        </g>
        <g
           id="g20306">
          <g
             id="g20308">
            <g
               id="g20310"
               clip-path="url(#clipPath20314)">
              <g
                 id="g20316">
                <path
                   d="m 146.691,100.145 h 7.571"
                   style="fill:none;stroke:#000000;stroke-width:2.99;stroke-linecap:butt;stroke-linejoin:round;stroke-miterlimit:10;stroke-dasharray:none;stroke-opacity:1"
                   id="path20318" />
              </g>
            </g>
          </g>
        </g>
        <g
           id="g20320">
          <g
             id="g20322">
            <g
               id="g20324"
               clip-path="url(#clipPath20328)">
              <g
                 id="g20330">
                <path
                   d="m 106.27,144.195 h 7.281"
                   style="fill:none;stroke:#000000;stroke-width:2.99;stroke-linecap:butt;stroke-linejoin:round;stroke-miterlimit:10;stroke-dasharray:none;stroke-opacity:1"
                   id="path20332" />
              </g>
            </g>
          </g>
        </g>
        <g
           id="g20334">
          <g
             id="g20336">
            <g
               id="g20338"
               clip-path="url(#clipPath20342)">
              <g
                 id="g20344">
                <path
                   d="m 191.91,56.098 c 0,0.925 -0.754,1.679 -1.68,1.679 -0.929,0 -1.679,-0.754 -1.679,-1.679 0,-0.93 0.75,-1.68 1.679,-1.68 0.926,0 1.68,0.75 1.68,1.68 z"
                   style="fill:#000000;fill-opacity:1;fill-rule:nonzero;stroke:#000000;stroke-width:1.06;stroke-linecap:round;stroke-linejoin:round;stroke-miterlimit:10;stroke-dasharray:none;stroke-opacity:1"
                   id="path20346" />
              </g>
            </g>
          </g>
        </g>
        <g
           id="g20348">
          <g
             id="g20350">
            <g
               id="g20352"
               clip-path="url(#clipPath20356)">
              <g
                 id="g20358">
                <path
                   d="m 152.199,100.145 c 0,0.929 -0.75,1.683 -1.679,1.683 -0.926,0 -1.68,-0.754 -1.68,-1.683 0,-0.926 0.754,-1.68 1.68,-1.68 0.929,0 1.679,0.754 1.679,1.68 z"
                   style="fill:#000000;fill-opacity:1;fill-rule:nonzero;stroke:#000000;stroke-width:1.06;stroke-linecap:round;stroke-linejoin:round;stroke-miterlimit:10;stroke-dasharray:none;stroke-opacity:1"
                   id="path20360" />
              </g>
            </g>
          </g>
        </g>
        <g
           id="g20362">
          <g
             id="g20364">
            <g
               id="g20366"
               clip-path="url(#clipPath20370)">
              <g
                 id="g20372">
                <path
                   d="m 111.57,144.195 c 0,0.93 -0.754,1.68 -1.679,1.68 -0.93,0 -1.68,-0.75 -1.68,-1.68 0,-0.925 0.75,-1.679 1.68,-1.679 0.925,0 1.679,0.754 1.679,1.679 z"
                   style="fill:#000000;fill-opacity:1;fill-rule:nonzero;stroke:#000000;stroke-width:1.06;stroke-linecap:round;stroke-linejoin:round;stroke-miterlimit:10;stroke-dasharray:none;stroke-opacity:1"
                   id="path20374" />
              </g>
            </g>
          </g>
        </g>
        <g
           id="g20376">
          <g
             id="g20378">
            <g
               id="g20380"
               clip-path="url(#clipPath20384)">
              <g
                 id="g20386">
                <path
                   d="m 193.449,56.098 c 0,1.777 -1.441,3.218 -3.219,3.218 -1.777,0 -3.218,-1.441 -3.218,-3.218 0,-1.782 1.441,-3.223 3.218,-3.223 1.778,0 3.219,1.441 3.219,3.223 z"
                   style="fill:#000000;fill-opacity:1;fill-rule:nonzero;stroke:#000000;stroke-width:1.06;stroke-linecap:round;stroke-linejoin:round;stroke-miterlimit:10;stroke-dasharray:none;stroke-opacity:1"
                   id="path20388" />
              </g>
            </g>
          </g>
        </g>
        <g
           id="g20390">
          <g
             id="g20392">
            <g
               id="g20394"
               clip-path="url(#clipPath20398)">
              <g
                 id="g20400">
                <path
                   d="m 153.738,100.145 c 0,1.781 -1.441,3.222 -3.218,3.222 -1.778,0 -3.219,-1.441 -3.219,-3.222 0,-1.778 1.441,-3.219 3.219,-3.219 1.777,0 3.218,1.441 3.218,3.219 z"
                   style="fill:#000000;fill-opacity:1;fill-rule:nonzero;stroke:#000000;stroke-width:1.06;stroke-linecap:round;stroke-linejoin:round;stroke-miterlimit:10;stroke-dasharray:none;stroke-opacity:1"
                   id="path20402" />
              </g>
            </g>
          </g>
        </g>
        <g
           id="g20404">
          <g
             id="g20406">
            <g
               id="g20408"
               clip-path="url(#clipPath20412)">
              <g
                 id="g20414">
                <path
                   d="m 113.109,144.195 c 0,1.778 -1.441,3.223 -3.218,3.223 -1.778,0 -3.219,-1.445 -3.219,-3.223 0,-1.777 1.441,-3.218 3.219,-3.218 1.777,0 3.218,1.441 3.218,3.218 z"
                   style="fill:#000000;fill-opacity:1;fill-rule:nonzero;stroke:#000000;stroke-width:1.06;stroke-linecap:round;stroke-linejoin:round;stroke-miterlimit:10;stroke-dasharray:none;stroke-opacity:1"
                   id="path20416" />
              </g>
            </g>
          </g>
        </g>
      </g>
    </g>
    <g
       id="g20418">
      <g
         id="g20420"
         clip-path="url(#clipPath20424)">
        <g
           id="g20426">
          <g
             id="g20428">
            <g
               id="g20430"
               clip-path="url(#clipPath20434)">
              <g
                 id="g20436">
                <path
                   d="M 77.07,170.625 V 12.047"
                   style="fill:none;stroke:#000000;stroke-width:1.07;stroke-linecap:butt;stroke-linejoin:round;stroke-miterlimit:10;stroke-dasharray:none;stroke-opacity:1"
                   id="path20438" />
              </g>
            </g>
          </g>
        </g>
        <text
           xml:space="preserve"
           transform="matrix(0.9995884,0,0,1,56.580134,140.58619)"
           style="font-variant:normal;font-weight:normal;font-size:5px;font-family:Arial;-inkscape-font-specification:ArialMT;writing-mode:lr-tb;fill:#4d4d4d;fill-opacity:1;fill-rule:nonzero;stroke:none"
           id="text20442"><tspan
             x="0 3.3349609 5.8349609 7.2241211 10.004883 12.785645"
             y="0"
             sodipodi:role="line"
             id="tspan20440">Extend</tspan></text>
        <text
           xml:space="preserve"
           transform="matrix(0.999445,0,0,1,58.810134,145.9862)"
           style="font-variant:normal;font-weight:normal;font-size:5px;font-family:Arial;-inkscape-font-specification:ArialMT;writing-mode:lr-tb;fill:#4d4d4d;fill-opacity:1;fill-rule:nonzero;stroke:none"
           id="text20446"><tspan
             x="0 4.1650391 5.2758789 8.0566406 10.837402"
             y="0"
             sodipodi:role="line"
             id="tspan20444">minus</tspan></text>
        <text
           xml:space="preserve"
           transform="matrix(0.9994802,0,0,1,7.430135,151.38619)"
           style="font-variant:normal;font-weight:normal;font-size:5px;font-family:Arial;-inkscape-font-specification:ArialMT;writing-mode:lr-tb;fill:#4d4d4d;fill-opacity:1;fill-rule:nonzero;stroke:none"
           id="text20450"><tspan
             x="0 3.3349609 5.8349609 7.2241211 10.004883 12.785645 15.566406 16.955566 20.566406 21.677246 23.066406 25.847168 27.236328 28.901367 31.682129 34.182129 36.682129 38.071289 40.571289 43.071289 44.182129 46.682129 48.071289 49.460449 52.241211 53.90625 57.51709 60.297852 61.962891"
             y="0"
             sodipodi:role="line"
             id="tspan20448">Extend with rock skis forward</tspan></text>
        <text
           xml:space="preserve"
           transform="matrix(0.9994138,0,0,1,32.710134,96.536192)"
           style="font-variant:normal;font-weight:normal;font-size:5px;font-family:Arial;-inkscape-font-specification:ArialMT;writing-mode:lr-tb;fill:#4d4d4d;fill-opacity:1;fill-rule:nonzero;stroke:none"
           id="text20454"><tspan
             x="0 3.6108398 6.3916016 8.8916016 11.391602 12.780762 15.280762 17.780762 18.891602 21.391602 22.780762 24.169922 26.950684 28.615723 32.226562 35.007324 36.672363"
             y="0"
             sodipodi:role="line"
             id="tspan20452">Rock skis forward</tspan></text>
        <text
           xml:space="preserve"
           transform="matrix(0.999445,0,0,1,58.810134,101.93619)"
           style="font-variant:normal;font-weight:normal;font-size:5px;font-family:Arial;-inkscape-font-specification:ArialMT;writing-mode:lr-tb;fill:#4d4d4d;fill-opacity:1;fill-rule:nonzero;stroke:none"
           id="text20458"><tspan
             x="0 4.1650391 5.2758789 8.0566406 10.837402"
             y="0"
             sodipodi:role="line"
             id="tspan20456">minus</tspan></text>
        <text
           xml:space="preserve"
           transform="matrix(0.9994802,0,0,1,7.430135,107.3362)"
           style="font-variant:normal;font-weight:normal;font-size:5px;font-family:Arial;-inkscape-font-specification:ArialMT;writing-mode:lr-tb;fill:#4d4d4d;fill-opacity:1;fill-rule:nonzero;stroke:none"
           id="text20462"><tspan
             x="0 3.3349609 5.8349609 7.2241211 10.004883 12.785645 15.566406 16.955566 20.566406 21.677246 23.066406 25.847168 27.236328 28.901367 31.682129 34.182129 36.682129 38.071289 40.571289 43.071289 44.182129 46.682129 48.071289 49.460449 52.241211 53.90625 57.51709 60.297852 61.962891"
             y="0"
             sodipodi:role="line"
             id="tspan20460">Extend with rock skis forward</tspan></text>
        <text
           xml:space="preserve"
           transform="matrix(0.9993912,0,0,1,41.580135,52.486193)"
           style="font-variant:normal;font-weight:normal;font-size:5px;font-family:Arial;-inkscape-font-specification:ArialMT;writing-mode:lr-tb;fill:#4d4d4d;fill-opacity:1;fill-rule:nonzero;stroke:none"
           id="text20466"><tspan
             x="0 3.3349609 4.7241211 7.5048828 10.285645 13.066406 14.455566 17.236328 20.01709 22.797852 23.908691 26.689453 29.189453"
             y="0"
             sodipodi:role="line"
             id="tspan20464">Stand against</tspan></text>
        <text
           xml:space="preserve"
           transform="matrix(0.999445,0,0,1,58.810134,57.88619)"
           style="font-variant:normal;font-weight:normal;font-size:5px;font-family:Arial;-inkscape-font-specification:ArialMT;writing-mode:lr-tb;fill:#4d4d4d;fill-opacity:1;fill-rule:nonzero;stroke:none"
           id="text20470"><tspan
             x="0 4.1650391 5.2758789 8.0566406 10.837402"
             y="0"
             sodipodi:role="line"
             id="tspan20468">minus</tspan></text>
        <text
           xml:space="preserve"
           transform="matrix(0.9994802,0,0,1,7.430135,63.286192)"
           style="font-variant:normal;font-weight:normal;font-size:5px;font-family:Arial;-inkscape-font-specification:ArialMT;writing-mode:lr-tb;fill:#4d4d4d;fill-opacity:1;fill-rule:nonzero;stroke:none"
           id="text20474"><tspan
             x="0 3.3349609 5.8349609 7.2241211 10.004883 12.785645 15.566406 16.955566 20.566406 21.677246 23.066406 25.847168 27.236328 28.901367 31.682129 34.182129 36.682129 38.071289 40.571289 43.071289 44.182129 46.682129 48.071289 49.460449 52.241211 53.90625 57.51709 60.297852 61.962891"
             y="0"
             sodipodi:role="line"
             id="tspan20472">Extend with rock skis forward</tspan></text>
        <g
           id="g20476">
          <g
             id="g20478">
            <g
               id="g20480"
               clip-path="url(#clipPath20484)">
              <g
                 id="g20486">
                <path
                   d="M 74.332,144.195 H 77.07"
                   style="fill:none;stroke:#333333;stroke-width:1.07;stroke-linecap:butt;stroke-linejoin:round;stroke-miterlimit:10;stroke-dasharray:none;stroke-opacity:1"
                   id="path20488" />
              </g>
            </g>
          </g>
        </g>
        <g
           id="g20490">
          <g
             id="g20492">
            <g
               id="g20494"
               clip-path="url(#clipPath20498)">
              <g
                 id="g20500">
                <path
                   d="M 74.332,100.145 H 77.07"
                   style="fill:none;stroke:#333333;stroke-width:1.07;stroke-linecap:butt;stroke-linejoin:round;stroke-miterlimit:10;stroke-dasharray:none;stroke-opacity:1"
                   id="path20502" />
              </g>
            </g>
          </g>
        </g>
        <g
           id="g20504">
          <g
             id="g20506">
            <g
               id="g20508"
               clip-path="url(#clipPath20512)">
              <g
                 id="g20514">
                <path
                   d="M 74.332,56.098 H 77.07"
                   style="fill:none;stroke:#333333;stroke-width:1.07;stroke-linecap:butt;stroke-linejoin:round;stroke-miterlimit:10;stroke-dasharray:none;stroke-opacity:1"
                   id="path20516" />
              </g>
            </g>
          </g>
        </g>
        <g
           id="g20518">
          <g
             id="g20520">
            <g
               id="g20522"
               clip-path="url(#clipPath20526)">
              <g
                 id="g20528">
                <path
                   d="m 77.07,170.625 h 195.5"
                   style="fill:none;stroke:#000000;stroke-width:1.07;stroke-linecap:butt;stroke-linejoin:round;stroke-miterlimit:10;stroke-dasharray:none;stroke-opacity:1"
                   id="path20530" />
              </g>
            </g>
          </g>
        </g>
        <g
           id="g20532">
          <g
             id="g20534">
            <g
               id="g20536"
               clip-path="url(#clipPath20540)">
              <g
                 id="g20542">
                <path
                   d="m 105.699,173.367 v -2.742"
                   style="fill:none;stroke:#333333;stroke-width:1.07;stroke-linecap:butt;stroke-linejoin:round;stroke-miterlimit:10;stroke-dasharray:none;stroke-opacity:1"
                   id="path20544" />
              </g>
            </g>
          </g>
        </g>
        <g
           id="g20546">
          <g
             id="g20548">
            <g
               id="g20550"
               clip-path="url(#clipPath20554)">
              <g
                 id="g20556">
                <path
                   d="m 125.449,173.367 v -2.742"
                   style="fill:none;stroke:#333333;stroke-width:1.07;stroke-linecap:butt;stroke-linejoin:round;stroke-miterlimit:10;stroke-dasharray:none;stroke-opacity:1"
                   id="path20558" />
              </g>
            </g>
          </g>
        </g>
        <g
           id="g20560">
          <g
             id="g20562">
            <g
               id="g20564"
               clip-path="url(#clipPath20568)">
              <g
                 id="g20570">
                <path
                   d="m 145.191,173.367 v -2.742"
                   style="fill:none;stroke:#333333;stroke-width:1.07;stroke-linecap:butt;stroke-linejoin:round;stroke-miterlimit:10;stroke-dasharray:none;stroke-opacity:1"
                   id="path20572" />
              </g>
            </g>
          </g>
        </g>
        <g
           id="g20574">
          <g
             id="g20576">
            <g
               id="g20578"
               clip-path="url(#clipPath20582)">
              <g
                 id="g20584">
                <path
                   d="m 164.941,173.367 v -2.742"
                   style="fill:none;stroke:#333333;stroke-width:1.07;stroke-linecap:butt;stroke-linejoin:round;stroke-miterlimit:10;stroke-dasharray:none;stroke-opacity:1"
                   id="path20586" />
              </g>
            </g>
          </g>
        </g>
        <g
           id="g20588">
          <g
             id="g20590">
            <g
               id="g20592"
               clip-path="url(#clipPath20596)">
              <g
                 id="g20598">
                <path
                   d="m 184.691,173.367 v -2.742"
                   style="fill:none;stroke:#333333;stroke-width:1.07;stroke-linecap:butt;stroke-linejoin:round;stroke-miterlimit:10;stroke-dasharray:none;stroke-opacity:1"
                   id="path20600" />
              </g>
            </g>
          </g>
        </g>
        <g
           id="g20602">
          <g
             id="g20604">
            <g
               id="g20606"
               clip-path="url(#clipPath20610)">
              <g
                 id="g20612">
                <path
                   d="m 204.441,173.367 v -2.742"
                   style="fill:none;stroke:#333333;stroke-width:1.07;stroke-linecap:butt;stroke-linejoin:round;stroke-miterlimit:10;stroke-dasharray:none;stroke-opacity:1"
                   id="path20614" />
              </g>
            </g>
          </g>
        </g>
        <g
           id="g20616">
          <g
             id="g20618">
            <g
               id="g20620"
               clip-path="url(#clipPath20624)">
              <g
                 id="g20626">
                <path
                   d="m 224.18,173.367 v -2.742"
                   style="fill:none;stroke:#333333;stroke-width:1.07;stroke-linecap:butt;stroke-linejoin:round;stroke-miterlimit:10;stroke-dasharray:none;stroke-opacity:1"
                   id="path20628" />
              </g>
            </g>
          </g>
        </g>
        <g
           id="g20630">
          <g
             id="g20632">
            <g
               id="g20634"
               clip-path="url(#clipPath20638)">
              <g
                 id="g20640">
                <path
                   d="m 243.93,173.367 v -2.742"
                   style="fill:none;stroke:#333333;stroke-width:1.07;stroke-linecap:butt;stroke-linejoin:round;stroke-miterlimit:10;stroke-dasharray:none;stroke-opacity:1"
                   id="path20642" />
              </g>
            </g>
          </g>
        </g>
        <g
           id="g20644">
          <g
             id="g20646">
            <g
               id="g20648"
               clip-path="url(#clipPath20652)">
              <g
                 id="g20654">
                <path
                   d="m 263.68,173.367 v -2.742"
                   style="fill:none;stroke:#333333;stroke-width:1.07;stroke-linecap:butt;stroke-linejoin:round;stroke-miterlimit:10;stroke-dasharray:none;stroke-opacity:1"
                   id="path20656" />
              </g>
            </g>
          </g>
        </g>
        <text
           xml:space="preserve"
           transform="matrix(0.9999016,0,0,1,102.22514,179.13619)"
           style="font-variant:normal;font-weight:normal;font-size:5px;font-family:Arial;-inkscape-font-specification:ArialMT;writing-mode:lr-tb;fill:#4d4d4d;fill-opacity:1;fill-rule:nonzero;stroke:none"
           id="text20660"><tspan
             x="0 2.7807617 4.1699219 19.750683 22.531445 23.920605 39.496368 42.27713 43.66629 59.247051 62.027813 63.416973 78.997772 81.778534 83.167694 98.748459 101.52922 102.91838 118.49414 121.2749 122.66406 138.24483 141.02559 142.41475 157.99556 160.77632 162.16548"
             y="0"
             sodipodi:role="line"
             id="tspan20658">0.00.10.20.30.40.50.60.70.8</tspan></text>
        <text
           xml:space="preserve"
           transform="matrix(0.9993542,0,0,1,151.91014,186.49619)"
           style="font-variant:normal;font-weight:normal;font-size:5px;font-family:Arial;-inkscape-font-specification:ArialMT;writing-mode:lr-tb;fill:#000000;fill-opacity:1;fill-rule:nonzero;stroke:none"
           id="text20664"><tspan
             x="0 3.6108398 6.3916016 8.8916016 11.672363 13.061523 14.450684 15.561523 19.726562 22.507324 23.896484 25.561523 28.061523 30.842285 33.342285 36.123047 38.903809 41.68457 44.18457"
             y="0"
             sodipodi:role="line"
             id="tspan20662">Race time (seconds)</tspan></text>
        <text
           xml:space="preserve"
           transform="matrix(0,-0.9994408,1,0,3.640137,110.3612)"
           style="font-variant:normal;font-weight:normal;font-size:5px;font-family:Arial;-inkscape-font-specification:ArialMT;writing-mode:lr-tb;fill:#000000;fill-opacity:1;fill-rule:nonzero;stroke:none"
           id="text20668"><tspan
             x="0 3.6108398 6.3916016 9.1723633 10.561523 12.226562 15.007324 17.507324 18.896484 20.285645 22.785645 24.174805 25.839844 28.620605 30.009766 32.790527 35.571289"
             y="0"
             sodipodi:role="line"
             id="tspan20666">Contrast strategy</tspan></text>
      </g>
    </g>
    <g
       id="g20674">
      <text
         xml:space="preserve"
         transform="rotate(-90,92.55253,-10.424407)"
         style="font-variant:normal;font-weight:normal;font-size:5px;font-family:Arial;-inkscape-font-specification:ArialMT;writing-mode:lr-tb;fill:#000000;fill-opacity:1;fill-rule:nonzero;stroke:none"
         id="text20682"><tspan
           x="0 3.3349624 5.8349633 7.224124 10.004887 12.785649 15.566413 16.955574 20.566414 21.677256 23.066416 25.847178 27.23634 28.901379 31.682142 34.182144 36.682144 38.071304 40.571304 43.071308 44.182148 46.682148 48.071308 49.460468 52.24123 53.906273 57.517113 60.297874 61.962917"
           y="0"
           sodipodi:role="line"
           id="tspan20680">Extend with rock skis forward</tspan></text>
    </g>
    <text
       xml:space="preserve"
       transform="matrix(0.75000002,0,0,0.75000002,-6.6502656,55.695234)"
       id="text21992"
       style="font-size:9.33333px;text-align:center;white-space:pre;shape-inside:url(#rect21994);fill:#000000;fill-opacity:1;stroke:#000000"><tspan
         x="111.62733"
         y="-65.465389"
         id="tspan24676"><tspan
           style="font-family:Arial;-inkscape-font-specification:Arial;stroke:none"
           id="tspan24674">Expected mean difference compared to 'extend with rock skis forward'</tspan></tspan></text>
  </g>
</svg>
