<?xml version="1.0" encoding="UTF-8" standalone="no"?>
<!-- Created with Inkscape (http://www.inkscape.org/) -->

<svg
   version="1.1"
   id="svg3757"
   width="528.81702"
   height="184.18134"
   viewBox="0 0 528.81701 184.18134"
   sodipodi:docname="figure_methods_LPSoverview.svg"
   inkscape:version="1.2.2 (732a01da63, 2022-12-09)"
   xmlns:inkscape="http://www.inkscape.org/namespaces/inkscape"
   xmlns:sodipodi="http://sodipodi.sourceforge.net/DTD/sodipodi-0.dtd"
   xmlns="http://www.w3.org/2000/svg"
   xmlns:svg="http://www.w3.org/2000/svg">
  <defs
     id="defs3761">
    <clipPath
       clipPathUnits="userSpaceOnUse"
       id="clipPath3793">
      <path
         d="M 0,0 H 442 V 370 H 0 Z"
         id="path3791" />
    </clipPath>
    <clipPath
       clipPathUnits="userSpaceOnUse"
       id="clipPath3811">
      <path
         d="M 0,0 H 442 V 370 H 0 Z"
         id="path3809" />
    </clipPath>
    <clipPath
       clipPathUnits="userSpaceOnUse"
       id="clipPath3829">
      <path
         d="M 0,0 H 442 V 370 H 0 Z"
         id="path3827" />
    </clipPath>
    <clipPath
       clipPathUnits="userSpaceOnUse"
       id="clipPath3885">
      <path
         d="M 0,0 H 442 V 370 H 0 Z"
         id="path3883" />
    </clipPath>
    <clipPath
       clipPathUnits="userSpaceOnUse"
       id="clipPath3903">
      <path
         d="M 0,0 H 442 V 370 H 0 Z"
         id="path3901" />
    </clipPath>
    <clipPath
       clipPathUnits="userSpaceOnUse"
       id="clipPath3925">
      <path
         d="M 0,0 H 442 V 370 H 0 Z"
         id="path3923" />
    </clipPath>
    <clipPath
       clipPathUnits="userSpaceOnUse"
       id="clipPath3951">
      <path
         d="M 0,0 H 442 V 370 H 0 Z"
         id="path3949" />
    </clipPath>
    <clipPath
       clipPathUnits="userSpaceOnUse"
       id="clipPath3969">
      <path
         d="M 0,0 H 442 V 370 H 0 Z"
         id="path3967" />
    </clipPath>
    <clipPath
       clipPathUnits="userSpaceOnUse"
       id="clipPath3991">
      <path
         d="m 5,215 h 437 v 7 H 5 Z"
         id="path3989" />
    </clipPath>
    <clipPath
       clipPathUnits="userSpaceOnUse"
       id="clipPath3999">
      <path
         d="M 0,0 H 442 V 370 H 0 Z"
         id="path3997" />
    </clipPath>
    <clipPath
       clipPathUnits="userSpaceOnUse"
       id="clipPath4003">
      <path
         d="M 0,0 H 442 V 370 H 0 Z"
         id="path4001" />
    </clipPath>
    <clipPath
       clipPathUnits="userSpaceOnUse"
       id="clipPath4035">
      <path
         d="M 0,0 H 442 V 370 H 0 Z"
         id="path4033" />
    </clipPath>
    <clipPath
       clipPathUnits="userSpaceOnUse"
       id="clipPath4053">
      <path
         d="M 0,0 H 442 V 370 H 0 Z"
         id="path4051" />
    </clipPath>
    <clipPath
       clipPathUnits="userSpaceOnUse"
       id="clipPath4075">
      <path
         d="M 0,0 H 442 V 370 H 0 Z"
         id="path4073" />
    </clipPath>
    <clipPath
       clipPathUnits="userSpaceOnUse"
       id="clipPath4093">
      <path
         d="M 0,0 H 442 V 370 H 0 Z"
         id="path4091" />
    </clipPath>
    <clipPath
       clipPathUnits="userSpaceOnUse"
       id="clipPath4111">
      <path
         d="M 0,0 H 442 V 370 H 0 Z"
         id="path4109" />
    </clipPath>
    <clipPath
       clipPathUnits="userSpaceOnUse"
       id="clipPath4149">
      <path
         d="M 0,0 H 442 V 370 H 0 Z"
         id="path4147" />
    </clipPath>
    <clipPath
       clipPathUnits="userSpaceOnUse"
       id="clipPath4179">
      <path
         d="M 0,0 H 442 V 370 H 0 Z"
         id="path4177" />
    </clipPath>
    <clipPath
       clipPathUnits="userSpaceOnUse"
       id="clipPath4201">
      <path
         d="M 0,0 H 442 V 370 H 0 Z"
         id="path4199" />
    </clipPath>
    <clipPath
       clipPathUnits="userSpaceOnUse"
       id="clipPath4223">
      <path
         d="M 0,0 H 442 V 370 H 0 Z"
         id="path4221" />
    </clipPath>
    <clipPath
       clipPathUnits="userSpaceOnUse"
       id="clipPath4245">
      <path
         d="M 0,0 H 442 V 370 H 0 Z"
         id="path4243" />
    </clipPath>
    <clipPath
       clipPathUnits="userSpaceOnUse"
       id="clipPath4267">
      <path
         d="M 0,0 H 442 V 370 H 0 Z"
         id="path4265" />
    </clipPath>
    <clipPath
       clipPathUnits="userSpaceOnUse"
       id="clipPath4727">
      <path
         d="M 0,0 H 442 V 370 H 0 Z"
         id="path4725" />
    </clipPath>
    <clipPath
       clipPathUnits="userSpaceOnUse"
       id="clipPath4753">
      <path
         d="M 0,0 H 442 V 370 H 0 Z"
         id="path4751" />
    </clipPath>
    <clipPath
       clipPathUnits="userSpaceOnUse"
       id="clipPath4775">
      <path
         d="M 0,0 H 442 V 370 H 0 Z"
         id="path4773" />
    </clipPath>
    <clipPath
       clipPathUnits="userSpaceOnUse"
       id="clipPath4797">
      <path
         d="M 0,0 H 442 V 370 H 0 Z"
         id="path4795" />
    </clipPath>
    <clipPath
       clipPathUnits="userSpaceOnUse"
       id="clipPath4819">
      <path
         d="M 0,0 H 442 V 370 H 0 Z"
         id="path4817" />
    </clipPath>
    <clipPath
       clipPathUnits="userSpaceOnUse"
       id="clipPath4841">
      <path
         d="M 0,0 H 442 V 370 H 0 Z"
         id="path4839" />
    </clipPath>
    <clipPath
       clipPathUnits="userSpaceOnUse"
       id="clipPath4863">
      <path
         d="M 0,0 H 442 V 370 H 0 Z"
         id="path4861" />
    </clipPath>
    <clipPath
       clipPathUnits="userSpaceOnUse"
       id="clipPath4885">
      <path
         d="M 0,0 H 442 V 370 H 0 Z"
         id="path4883" />
    </clipPath>
    <clipPath
       clipPathUnits="userSpaceOnUse"
       id="clipPath4907">
      <path
         d="M 0,0 H 442 V 370 H 0 Z"
         id="path4905" />
    </clipPath>
    <clipPath
       clipPathUnits="userSpaceOnUse"
       id="clipPath4929">
      <path
         d="M 16.578,142.504 H 236.469 V 358.199 H 16.578 Z"
         id="path4927" />
    </clipPath>
    <clipPath
       clipPathUnits="userSpaceOnUse"
       id="clipPath4937">
      <path
         d="M 0,0 H 442 V 370 H 0 Z"
         id="path4935" />
    </clipPath>
    <clipPath
       clipPathUnits="userSpaceOnUse"
       id="clipPath4941">
      <path
         d="M 0,0 H 442 V 370 H 0 Z"
         id="path4939" />
    </clipPath>
    <clipPath
       clipPathUnits="userSpaceOnUse"
       id="clipPath4945">
      <path
         d="M 0,0 H 442 V 370 H 0 Z"
         id="path4943" />
    </clipPath>
    <clipPath
       clipPathUnits="userSpaceOnUse"
       id="clipPath4949">
      <path
         d="M 0,0 H 442 V 370 H 0 Z"
         id="path4947" />
    </clipPath>
    <clipPath
       clipPathUnits="userSpaceOnUse"
       id="clipPath4953">
      <path
         d="M 0,0 H 442 V 370 H 0 Z"
         id="path4951" />
    </clipPath>
    <clipPath
       clipPathUnits="userSpaceOnUse"
       id="clipPath4957">
      <path
         d="M 0,0 H 442 V 370 H 0 Z"
         id="path4955" />
    </clipPath>
    <clipPath
       clipPathUnits="userSpaceOnUse"
       id="clipPath4961">
      <path
         d="M 0,0 H 442 V 370 H 0 Z"
         id="path4959" />
    </clipPath>
    <clipPath
       clipPathUnits="userSpaceOnUse"
       id="clipPath4965">
      <path
         d="M 0,0 H 442 V 370 H 0 Z"
         id="path4963" />
    </clipPath>
    <clipPath
       clipPathUnits="userSpaceOnUse"
       id="clipPath4969">
      <path
         d="M 0,0 H 442 V 370 H 0 Z"
         id="path4967" />
    </clipPath>
    <clipPath
       clipPathUnits="userSpaceOnUse"
       id="clipPath5157">
      <path
         d="M 0,0 H 442 V 370 H 0 Z"
         id="path5155" />
    </clipPath>
    <clipPath
       clipPathUnits="userSpaceOnUse"
       id="clipPath5175">
      <path
         d="M 0,0 H 442 V 370 H 0 Z"
         id="path5173" />
    </clipPath>
    <clipPath
       clipPathUnits="userSpaceOnUse"
       id="clipPath5205">
      <path
         d="M 0,0 H 442 V 370 H 0 Z"
         id="path5203" />
    </clipPath>
    <clipPath
       clipPathUnits="userSpaceOnUse"
       id="clipPath5223">
      <path
         d="M 0,0 H 442 V 370 H 0 Z"
         id="path5221" />
    </clipPath>
    <clipPath
       clipPathUnits="userSpaceOnUse"
       id="clipPath5239">
      <path
         d="M 0,0 H 442 V 370 H 0 Z"
         id="path5237" />
    </clipPath>
    <clipPath
       clipPathUnits="userSpaceOnUse"
       id="clipPath5299">
      <path
         d="M 0,0 H 442 V 370 H 0 Z"
         id="path5297" />
    </clipPath>
    <clipPath
       clipPathUnits="userSpaceOnUse"
       id="clipPath5337">
      <path
         d="M 0,0 H 442 V 370 H 0 Z"
         id="path5335" />
    </clipPath>
    <clipPath
       clipPathUnits="userSpaceOnUse"
       id="clipPath5353">
      <path
         d="M 0,0 H 442 V 370 H 0 Z"
         id="path5351" />
    </clipPath>
    <clipPath
       clipPathUnits="userSpaceOnUse"
       id="clipPath5369">
      <path
         d="M 0,0 H 442 V 370 H 0 Z"
         id="path5367" />
    </clipPath>
    <clipPath
       clipPathUnits="userSpaceOnUse"
       id="clipPath5385">
      <path
         d="M 0,0 H 442 V 370 H 0 Z"
         id="path5383" />
    </clipPath>
    <clipPath
       clipPathUnits="userSpaceOnUse"
       id="clipPath5415">
      <path
         d="M 0,0 H 442 V 370 H 0 Z"
         id="path5413" />
    </clipPath>
    <clipPath
       clipPathUnits="userSpaceOnUse"
       id="clipPath5439">
      <path
         d="M 0,0 H 442 V 370 H 0 Z"
         id="path5437" />
    </clipPath>
    <clipPath
       clipPathUnits="userSpaceOnUse"
       id="clipPath5457">
      <path
         d="M 0,0 H 442 V 370 H 0 Z"
         id="path5455" />
    </clipPath>
    <clipPath
       clipPathUnits="userSpaceOnUse"
       id="clipPath5473">
      <path
         d="M 0,0 H 442 V 370 H 0 Z"
         id="path5471" />
    </clipPath>
    <clipPath
       clipPathUnits="userSpaceOnUse"
       id="clipPath5489">
      <path
         d="M 0,0 H 442 V 370 H 0 Z"
         id="path5487" />
    </clipPath>
    <clipPath
       clipPathUnits="userSpaceOnUse"
       id="clipPath5505">
      <path
         d="M 0,0 H 442 V 370 H 0 Z"
         id="path5503" />
    </clipPath>
  </defs>
  <sodipodi:namedview
     id="namedview3759"
     pagecolor="#ffffff"
     bordercolor="#000000"
     borderopacity="0.25"
     inkscape:showpageshadow="2"
     inkscape:pageopacity="0.0"
     inkscape:pagecheckerboard="0"
     inkscape:deskcolor="#d1d1d1"
     showgrid="false"
     inkscape:zoom="2.0866293"
     inkscape:cx="132.9896"
     inkscape:cy="124.12363"
     inkscape:window-width="5120"
     inkscape:window-height="1369"
     inkscape:window-x="-8"
     inkscape:window-y="-8"
     inkscape:window-maximized="1"
     inkscape:current-layer="g3765">
    <inkscape:page
       x="0"
       y="0"
       id="page3763"
       width="528.81702"
       height="184.18134" />
  </sodipodi:namedview>
  <g
     id="g3765"
     inkscape:groupmode="layer"
     inkscape:label="Page 1"
     transform="matrix(1.3333333,0,0,1.3333333,-1.2319647e-6,0)">
    <g
       id="g3771"
       transform="translate(0,-231)">
      <path
         d="m 333.816,315.68 v 20.836"
         style="fill:none;stroke:#000000;stroke-width:0.880669;stroke-linecap:butt;stroke-linejoin:miter;stroke-miterlimit:4;stroke-dasharray:none;stroke-opacity:1"
         id="path3773" />
    </g>
    <g
       id="g3775"
       transform="rotate(-90,-115.5,-115.5)">
      <path
         d="m -334.094,331.176 -2.64,2.64 2.64,2.641"
         style="fill:none;stroke:#000000;stroke-width:0.880669;stroke-linecap:butt;stroke-linejoin:miter;stroke-miterlimit:4;stroke-dasharray:none;stroke-opacity:1"
         id="path3777" />
    </g>
    <g
       id="g3779"
       transform="translate(0,-231)">
      <path
         d="m 317.297,337.383 15.187,0.191"
         style="fill:#a7ac93;fill-opacity:1;fill-rule:nonzero;stroke:#000000;stroke-width:0.792602;stroke-linecap:butt;stroke-linejoin:miter;stroke-miterlimit:4;stroke-dasharray:none;stroke-opacity:1"
         id="path3781" />
    </g>
    <g
       id="g3783"
       transform="matrix(-1,-0.0126405,0.0126405,-1,0,-231)">
      <path
         d="m -334.521,-335.697 -2.376,2.377 2.378,2.377"
         style="fill:none;stroke:#000000;stroke-width:0.792539;stroke-linecap:butt;stroke-linejoin:miter;stroke-miterlimit:4;stroke-dasharray:none;stroke-opacity:1"
         id="path3785" />
    </g>
    <g
       id="g3787"
       transform="translate(0,-231)">
      <g
         id="g3789" />
      <g
         id="g3803">
        <g
           clip-path="url(#clipPath3793)"
           opacity="0.99"
           id="g3801">
          <g
             id="g3799">
            <text
               xml:space="preserve"
               transform="matrix(0.90558087,0,0,1,317.39213,334.36251)"
               style="font-variant:normal;font-weight:normal;font-size:5.2542px;font-family:Arial;-inkscape-font-specification:ArialMT;writing-mode:lr-tb;fill:#000000;fill-opacity:1;fill-rule:nonzero;stroke:none"
               id="text3797"><tspan
                 x="0 3.09027 4.6288681 7.7191381 9.26299"
                 y="0"
                 sodipodi:role="line"
                 id="tspan3795">1.7 m</tspan></text>
          </g>
        </g>
      </g>
    </g>
    <g
       id="g3805"
       transform="translate(0,-231)">
      <g
         id="g3807" />
      <g
         id="g3821">
        <g
           clip-path="url(#clipPath3811)"
           opacity="0.99"
           id="g3819">
          <g
             id="g3817">
            <text
               xml:space="preserve"
               transform="matrix(0,-0.90558068,1,0,340.59885,334.79106)"
               style="font-variant:normal;font-weight:normal;font-size:5.2542px;font-family:Arial;-inkscape-font-specification:ArialMT;writing-mode:lr-tb;fill:#000000;fill-opacity:1;fill-rule:nonzero;stroke:none"
               id="text3815"><tspan
                 x="0 3.09027 6.1752858 7.7191381"
                 y="0"
                 sodipodi:role="line"
                 id="tspan3813">10 m</tspan></text>
          </g>
        </g>
      </g>
    </g>
    <g
       id="g3823"
       transform="translate(0,-231)">
      <g
         id="g3825" />
      <g
         id="g3839">
        <g
           clip-path="url(#clipPath3829)"
           opacity="0.99"
           id="g3837">
          <g
             id="g3835">
            <text
               xml:space="preserve"
               transform="translate(311.29695,369.06276)"
               style="font-variant:normal;font-weight:normal;font-size:6px;font-family:Arial;-inkscape-font-specification:ArialMT;writing-mode:lr-tb;fill:#000000;fill-opacity:1;fill-rule:nonzero;stroke:none"
               id="text3833"><tspan
                 x="0 4.0019531 5.3349609 8.671875 10.004883 13.341797 18.339844 20.006836 23.006836 26.34375 29.680664 31.678711 34.678711"
                 y="0"
                 sodipodi:role="line"
                 id="tspan3831">Slalom course</tspan></text>
          </g>
        </g>
      </g>
    </g>
    <text
       xml:space="preserve"
       transform="scale(0.9996061,1.0003941)"
       style="font-variant:normal;font-weight:bold;font-size:13.9945px;font-family:Arial;-inkscape-font-specification:Arial-BoldMT;writing-mode:lr-tb;fill:#000000;fill-opacity:1;fill-rule:nonzero;stroke:none;stroke-width:0.999606"
       id="text3843"
       x="-0.49882647"
       y="11.704371"><tspan
         x="-0.49882647"
         y="11.704371"
         id="tspan3841"
         style="stroke-width:0.999606">a</tspan></text>
    <text
       xml:space="preserve"
       style="font-variant:normal;font-weight:bold;font-size:14px;font-family:Arial;-inkscape-font-specification:Arial-BoldMT;writing-mode:lr-tb;fill:#1a1a1a;fill-opacity:1;fill-rule:nonzero;stroke:none"
       id="text3853"
       x="242.13258"
       y="10.021484"><tspan
         x="242.13258"
         y="10.021484"
         id="tspan3851">b</tspan></text>
    <text
       xml:space="preserve"
       style="font-variant:normal;font-weight:normal;font-size:7px;font-family:Arial;-inkscape-font-specification:ArialMT;writing-mode:lr-tb;fill:#1a1a1a;fill-opacity:1;fill-rule:nonzero;stroke:none"
       id="text3865"
       x="27.277048"
       y="7.2510138"><tspan
         x="27.277048 30.775927 34.668991 37.000046 39.3311 43.224167 44.779343 48.672409 50.617233 54.5103 56.841354 60.734421 62.679245 64.234421 65.789597"
         y="7.2510138"
         sodipodi:role="line"
         id="tspan3863">Terrain profile</tspan></text>
    <text
       xml:space="preserve"
       style="font-variant:normal;font-weight:normal;font-size:7px;font-family:Arial;-inkscape-font-specification:ArialMT;writing-mode:lr-tb;fill:#1a1a1a;fill-opacity:1;fill-rule:nonzero;stroke:none"
       id="text3873"
       x="270.811"
       y="7.1689825"><tspan
         x="270.811 275.86618 279.75925 283.65231 285.98337 289.48337 293.37643 295.32126 298.82126 302.71432 304.65915 308.55222 312.44528 314.39011 318.28317 322.17624 326.06931 328.01413 329.56931 333.46237 336.96237 340.85544 342.41061 344.35544 348.2485 352.14157 355.64157 357.19675 359.14157 360.69675 364.58981 368.48288 370.03806 373.93112 377.82419 379.76901 383.26901 387.16208 389.1069 392.99997"
         y="7.1689825"
         sodipodi:role="line"
         id="tspan3871">Course setup and local positioning setup</tspan></text>
    <g
       id="g4065" />
    <g
       id="g4069"
       transform="translate(0,-231)">
      <g
         id="g4071" />
      <g
         id="g4085">
        <g
           clip-path="url(#clipPath4075)"
           opacity="0.99"
           id="g4083">
          <g
             id="g4081">
            <text
               xml:space="preserve"
               transform="matrix(0.90558077,0,0,1,116.9589,359.14175)"
               style="font-variant:normal;font-weight:normal;font-size:6.30504px;font-family:Arial;-inkscape-font-specification:ArialMT;writing-mode:lr-tb;fill:#000000;fill-opacity:1;fill-rule:nonzero;stroke:none"
               id="text4079"><tspan
                 x="0 3.5065627 7.0131254 10.519689 14.024232"
                 y="0"
                 sodipodi:role="line"
                 id="tspan4077">130 m</tspan></text>
          </g>
        </g>
      </g>
    </g>
    <g
       id="g4087"
       transform="translate(0,-231)">
      <g
         id="g4089" />
      <g
         id="g4103">
        <g
           clip-path="url(#clipPath4093)"
           opacity="0.99"
           id="g4101">
          <g
             id="g4099">
            <text
               xml:space="preserve"
               transform="matrix(0.90558077,0,0,1,6.625302,325.00642)"
               style="font-variant:normal;font-weight:normal;font-size:6.30504px;font-family:Arial;-inkscape-font-specification:ArialMT;writing-mode:lr-tb;fill:#000000;fill-opacity:1;fill-rule:nonzero;stroke:none"
               id="text4097"><tspan
                 x="0 3.5065627 7.0131254 8.7648678"
                 y="0"
                 sodipodi:role="line"
                 id="tspan4095">14 m</tspan></text>
          </g>
        </g>
      </g>
    </g>
    <g
       id="g4105"
       transform="translate(0,-231)">
      <g
         id="g4107" />
      <g
         id="g4121">
        <g
           clip-path="url(#clipPath4111)"
           opacity="0.99"
           id="g4119">
          <g
             id="g4117">
            <text
               xml:space="preserve"
               transform="matrix(0.90558077,0,0,1,20.855307,285.15222)"
               style="font-variant:normal;font-weight:normal;font-size:6.30504px;font-family:Arial;-inkscape-font-specification:ArialMT;writing-mode:lr-tb;fill:#000000;fill-opacity:1;fill-rule:nonzero;stroke:none"
               id="text4115"><tspan
                 x="0 4.2054124 5.9571543 9.4637175 11.563345"
                 y="0"
                 sodipodi:role="line"
                 id="tspan4113">Start</tspan></text>
          </g>
        </g>
      </g>
    </g>
    <g
       id="g4123"
       transform="translate(0,-231)">
      <path
         d="m 317.07,293.902 c 0,1.286 -0.941,2.321 -2.105,2.321 -1.16,0 -2.102,-1.035 -2.102,-2.321 0,-1.281 0.942,-2.32 2.102,-2.32 1.164,0 2.105,1.039 2.105,2.32 z"
         style="fill:#088096;fill-opacity:1;fill-rule:nonzero;stroke:#000000;stroke-width:0.528403;stroke-linecap:butt;stroke-linejoin:miter;stroke-miterlimit:4;stroke-dasharray:none;stroke-opacity:1"
         id="path4125" />
    </g>
    <g
       id="g4127"
       transform="translate(0,-231)">
      <path
         d="m 335.984,273.133 c 0,1.281 -0.941,2.32 -2.101,2.32 -1.164,0 -2.106,-1.039 -2.106,-2.32 0,-1.281 0.942,-2.32 2.106,-2.32 1.16,0 2.101,1.039 2.101,2.32 z"
         style="fill:#088096;fill-opacity:1;fill-rule:nonzero;stroke:#000000;stroke-width:0.528403;stroke-linecap:butt;stroke-linejoin:miter;stroke-miterlimit:4;stroke-dasharray:none;stroke-opacity:1"
         id="path4129" />
    </g>
    <g
       id="g4131"
       transform="translate(0,-231)">
      <path
         d="m 335.984,315.727 c 0,1.281 -0.941,2.32 -2.101,2.32 -1.164,0 -2.106,-1.039 -2.106,-2.32 0,-1.286 0.942,-2.325 2.106,-2.325 1.16,0 2.101,1.039 2.101,2.325 z"
         style="fill:#088096;fill-opacity:1;fill-rule:nonzero;stroke:#000000;stroke-width:0.528403;stroke-linecap:butt;stroke-linejoin:miter;stroke-miterlimit:4;stroke-dasharray:none;stroke-opacity:1"
         id="path4133" />
    </g>
    <g
       id="g4135"
       transform="translate(0,-231)">
      <path
         d="m 317.07,336.992 c 0,1.285 -0.941,2.324 -2.105,2.324 -1.16,0 -2.102,-1.039 -2.102,-2.324 0,-1.281 0.942,-2.32 2.102,-2.32 1.164,0 2.105,1.039 2.105,2.32 z"
         style="fill:#088096;fill-opacity:1;fill-rule:nonzero;stroke:#000000;stroke-width:0.528403;stroke-linecap:butt;stroke-linejoin:miter;stroke-miterlimit:4;stroke-dasharray:none;stroke-opacity:1"
         id="path4137" />
    </g>
    <g
       id="g4139"
       transform="translate(0,-231)">
      <path
         d="m 335.984,358.813 c 0,1.285 -0.941,2.324 -2.101,2.324 -1.164,0 -2.106,-1.039 -2.106,-2.324 0,-1.278 0.942,-2.317 2.106,-2.317 1.16,0 2.101,1.039 2.101,2.317 z"
         style="fill:#088096;fill-opacity:1;fill-rule:nonzero;stroke:#000000;stroke-width:0.528403;stroke-linecap:butt;stroke-linejoin:miter;stroke-miterlimit:4;stroke-dasharray:none;stroke-opacity:1"
         id="path4141" />
    </g>
    <g
       id="g4143"
       transform="translate(0,-231)">
      <g
         id="g4145" />
      <g
         id="g4157">
        <g
           clip-path="url(#clipPath4149)"
           opacity="0.8"
           id="g4155">
          <g
             id="g4153">
            <path
               d="m 325.18,252.977 -0.176,0.3 0.301,0.18 0.179,-0.309 z m 0.605,0.359 -0.183,0.305 0.132,0.074 0.168,0.109 0.188,-0.297 -0.172,-0.109 z m 0.602,0.379 -0.192,0.301 0.059,0.031 0.234,0.156 0.192,-0.293 -0.231,-0.152 z m 0.59,0.39 -0.196,0.293 0.102,0.071 0.187,0.125 0.2,-0.285 -0.188,-0.133 z m 0.582,0.399 -0.2,0.289 0.25,0.18 0.036,0.023 0.207,-0.285 -0.036,-0.031 z m 0.578,0.41 -0.203,0.281 0.281,0.211 0.207,-0.285 z m 0.57,0.418 -0.211,0.281 0.285,0.211 0.207,-0.277 z m 0.57,0.426 -0.218,0.277 0.211,0.168 0.062,0.047 0.219,-0.273 -0.063,-0.055 z m 0.551,0.433 -0.219,0.278 0.274,0.222 0.226,-0.273 -0.171,-0.137 z m 0.547,0.45 -0.219,0.273 0.008,0.012 0.258,0.211 0.226,-0.266 -0.25,-0.219 z m 0.547,0.461 -0.234,0.261 0.269,0.235 0.227,-0.27 z m 0.531,0.461 -0.238,0.261 0.262,0.235 0.242,-0.258 z m 0.524,0.48 -0.243,0.258 0.262,0.238 0.238,-0.258 z m 0.511,0.484 -0.242,0.254 0.246,0.246 0.254,-0.25 -0.019,-0.019 z m 0.5,0.504 -0.25,0.25 0.196,0.188 0.05,0.058 0.254,-0.242 -0.054,-0.058 z m 0.492,0.512 -0.257,0.238 0.156,0.16 0.082,0.098 0.266,-0.238 -0.09,-0.098 z m 0.481,0.523 -0.266,0.231 0.118,0.133 0.113,0.129 0.269,-0.227 -0.113,-0.133 z m 0.461,0.536 -0.27,0.226 0.09,0.106 0.133,0.164 0.273,-0.219 -0.136,-0.172 z m 0.449,0.55 -0.273,0.219 0.054,0.067 0.157,0.21 0.285,-0.214 -0.164,-0.211 z m 0.43,0.563 -0.278,0.211 0.024,0.039 0.176,0.242 0.289,-0.203 -0.176,-0.246 z m 0.414,0.578 -0.289,0.203 0.191,0.289 0.293,-0.191 -0.195,-0.297 z m 0.39,0.602 -0.296,0.183 0.144,0.235 0.035,0.062 0.301,-0.18 -0.035,-0.066 z m 0.368,0.605 -0.309,0.176 0.113,0.199 0.059,0.105 0.305,-0.164 -0.059,-0.113 z m 0.332,0.633 -0.309,0.152 0.07,0.153 0.086,0.164 0.317,-0.153 -0.086,-0.168 z m 0.308,0.637 -0.312,0.148 0.035,0.09 0.098,0.23 0.324,-0.136 -0.102,-0.235 z m 0.278,0.66 -0.332,0.129 0.015,0.031 0.11,0.297 0.332,-0.121 -0.114,-0.301 z m 0.234,0.679 -0.336,0.102 0.098,0.332 0.34,-0.094 -0.016,-0.07 z m 0.195,0.688 -0.343,0.082 0.046,0.199 0.028,0.141 0.347,-0.074 -0.031,-0.149 z m 0.149,0.699 -0.352,0.063 0.024,0.117 0.027,0.222 0.352,-0.046 -0.036,-0.227 z m 0.094,0.711 -0.352,0.039 0.004,0.039 0.023,0.309 0.352,-0.031 -0.024,-0.309 z m -0.313,0.719 v 0.347 l 0.348,0.016 0.004,-0.078 v -0.281 z m -0.016,0.695 -0.015,0.211 -0.016,0.133 0.352,0.035 0.011,-0.141 0.02,-0.214 z m -0.074,0.688 -0.023,0.144 -0.028,0.195 0.34,0.063 0.035,-0.203 0.028,-0.149 z m -0.129,0.679 -0.015,0.094 -0.067,0.238 0.34,0.09 0.066,-0.242 0.024,-0.105 z m -0.179,0.668 -0.02,0.059 -0.086,0.265 0.328,0.118 0.094,-0.274 0.02,-0.066 z m -0.235,0.653 -0.012,0.043 -0.117,0.273 0.321,0.137 0.121,-0.278 0.019,-0.046 z m -0.277,0.629 -0.024,0.05 -0.132,0.258 0.312,0.164 0.137,-0.265 0.023,-0.059 z m -0.328,0.613 -0.043,0.078 -0.133,0.223 0.305,0.175 0.129,-0.222 0.05,-0.082 z m -0.36,0.586 -0.086,0.136 -0.105,0.153 0.285,0.203 0.113,-0.16 0.086,-0.137 z m -0.398,0.57 -0.156,0.211 -0.055,0.059 0.273,0.222 0.059,-0.07 0.16,-0.211 z m -0.43,0.547 -0.226,0.266 0.265,0.23 0.227,-0.27 z m -0.461,0.523 -0.093,0.11 -0.141,0.148 0.258,0.238 0.14,-0.148 0.102,-0.113 z m -0.476,0.504 -0.25,0.25 0.246,0.246 0.25,-0.246 z m -0.504,0.485 -0.094,0.089 -0.164,0.141 0.234,0.266 0.168,-0.149 0.098,-0.09 z m -0.516,0.464 -0.269,0.227 0.226,0.266 0.27,-0.223 z m -0.539,0.446 -0.18,0.148 -0.093,0.071 0.215,0.277 0.097,-0.074 0.18,-0.145 z m -0.551,0.433 -0.05,0.036 -0.235,0.171 0.211,0.286 0.238,-0.176 0.051,-0.039 z m -0.566,0.414 -0.285,0.2 0.203,0.289 0.289,-0.203 z m -0.574,0.403 -0.278,0.183 -0.011,0.012 0.187,0.289 0.02,-0.008 0.281,-0.187 z m -0.586,0.383 -0.188,0.121 -0.105,0.066 0.187,0.301 0.106,-0.067 0.191,-0.128 z m -0.594,0.371 -0.113,0.066 -0.188,0.113 0.184,0.305 0.187,-0.117 0.114,-0.063 z m -0.602,0.363 -0.05,0.027 -0.25,0.149 0.175,0.297 0.258,-0.145 0.047,-0.031 z m -0.601,0.344 -0.316,0.172 0.175,0.304 0.305,-0.164 z m -0.621,0.336 -0.313,0.164 0.164,0.316 0.313,-0.168 z m -0.617,0.328 -0.321,0.16 0.16,0.309 0.321,-0.153 z m -0.633,0.316 -0.317,0.153 0.157,0.32 0.316,-0.156 z m -0.629,0.305 -0.316,0.152 0.148,0.317 0.32,-0.149 z m -0.633,0.301 -0.324,0.144 0.148,0.324 0.317,-0.148 z m -0.641,0.293 -0.027,0.007 -0.297,0.133 0.141,0.324 0.301,-0.136 0.027,-0.008 z m -0.644,0.277 -0.094,0.043 -0.23,0.098 0.136,0.32 0.235,-0.098 0.094,-0.035 z m -0.652,0.277 -0.176,0.075 -0.141,0.058 0.129,0.324 0.152,-0.054 0.176,-0.082 z m -0.645,0.262 -0.285,0.117 -0.039,0.016 0.129,0.324 0.035,-0.012 0.289,-0.117 z m -0.656,0.266 -0.324,0.125 0.125,0.324 0.332,-0.125 z m -0.66,0.265 -0.141,0.067 -0.18,0.086 0.145,0.316 0.183,-0.086 0.141,-0.058 z m -0.641,0.301 -0.316,0.149 0.148,0.316 0.316,-0.152 z m -0.637,0.305 -0.312,0.152 0.148,0.317 0.317,-0.157 z m -0.636,0.304 -0.309,0.165 0.152,0.312 0.317,-0.156 z m -0.625,0.325 -0.176,0.09 -0.141,0.07 0.164,0.312 0.133,-0.074 0.176,-0.086 z m -0.629,0.324 -0.313,0.164 0.164,0.309 0.313,-0.165 z m -0.629,0.328 -0.305,0.172 0.172,0.308 0.305,-0.167 z m -0.613,0.34 -0.208,0.109 -0.105,0.067 0.172,0.304 0.109,-0.062 0.199,-0.11 z m -0.618,0.344 -0.308,0.175 0.172,0.309 0.312,-0.176 z m -0.617,0.347 -0.004,0.008 -0.297,0.176 0.176,0.305 0.297,-0.176 h 0.004 z m -0.609,0.364 -0.301,0.183 0.184,0.301 0.304,-0.184 z m -0.606,0.367 -0.297,0.191 0.188,0.293 0.305,-0.18 z m -0.593,0.379 -0.297,0.191 0.191,0.293 0.297,-0.191 z m -0.594,0.382 -0.285,0.188 -0.012,0.012 0.199,0.289 0.012,-0.008 0.281,-0.184 z m -0.586,0.395 -0.235,0.16 -0.058,0.043 0.203,0.289 0.059,-0.043 0.226,-0.156 z m -0.578,0.402 -0.184,0.133 -0.109,0.078 0.211,0.282 0.105,-0.075 0.176,-0.129 z m -0.578,0.422 -0.125,0.09 -0.157,0.121 0.215,0.281 0.149,-0.117 0.129,-0.094 z m -0.563,0.43 -0.074,0.051 -0.207,0.168 0.223,0.273 0.207,-0.164 0.062,-0.051 z m -0.551,0.437 -0.015,0.016 -0.262,0.215 0.227,0.265 0.257,-0.21 0.012,-0.012 z m -0.547,0.457 -0.261,0.235 0.234,0.262 0.258,-0.235 z m -0.527,0.477 -0.258,0.242 0.242,0.258 0.254,-0.246 z m -0.512,0.496 -0.238,0.238 -0.016,0.012 0.258,0.242 0.008,-0.011 0.234,-0.235 z m -0.492,0.508 -0.14,0.152 -0.098,0.117 0.269,0.231 0.09,-0.113 0.137,-0.145 z m -0.469,0.539 -0.039,0.043 -0.175,0.219 -0.008,0.023 0.277,0.211 0.012,-0.019 0.168,-0.211 0.035,-0.036 z m -0.441,0.57 -0.094,0.129 -0.109,0.164 0.293,0.196 0.105,-0.157 0.094,-0.125 z m -0.398,0.594 -0.118,0.199 -0.062,0.114 0.312,0.171 0.059,-0.109 0.113,-0.195 z m -0.344,0.629 -0.008,0.016 -0.102,0.222 -0.039,0.102 0.329,0.129 0.031,-0.09 0.097,-0.207 0.008,-0.008 z m -0.277,0.672 -0.008,0.019 -0.067,0.227 -0.031,0.109 0.34,0.086 0.031,-0.097 0.063,-0.207 v -0.016 z m -0.188,0.711 -0.035,0.211 -0.012,0.148 0.352,0.039 0.011,-0.137 0.032,-0.207 z m 0.281,0.73 -0.347,0.004 v 0.16 l 0.015,0.199 0.352,-0.023 -0.012,-0.191 z m 0.067,0.668 -0.348,0.07 0.023,0.106 0.055,0.223 0.012,0.027 0.336,-0.106 -0.008,-0.019 -0.051,-0.203 z m 0.187,0.645 -0.324,0.125 0.027,0.078 0.102,0.226 0.023,0.036 0.313,-0.165 -0.02,-0.035 -0.09,-0.199 z m 0.309,0.597 -0.305,0.184 0.059,0.086 0.144,0.211 0.004,0.012 0.281,-0.215 -0.14,-0.203 z m 0.394,0.547 -0.269,0.231 0.117,0.133 0.125,0.132 0.258,-0.238 -0.117,-0.129 z m 0.477,0.5 -0.254,0.258 0.035,0.027 0.234,0.207 0.008,0.008 0.223,-0.269 v -0.004 l -0.219,-0.196 z m 0.515,0.449 -0.218,0.278 0.23,0.176 0.059,0.039 0.207,-0.282 -0.055,-0.039 z m 0.559,0.407 -0.195,0.297 0.23,0.148 0.071,0.047 0.179,-0.305 -0.058,-0.035 z m 0.586,0.371 -0.176,0.304 0.281,0.168 0.024,0.012 0.176,-0.308 -0.028,-0.012 z m 0.609,0.34 -0.164,0.312 0.02,0.008 0.297,0.152 0.16,-0.312 -0.293,-0.149 z m 0.621,0.312 -0.148,0.317 0.148,0.074 0.172,0.078 0.149,-0.324 -0.168,-0.071 z m 0.637,0.285 -0.137,0.328 0.325,0.137 0.133,-0.324 z m 0.649,0.27 -0.133,0.328 0.156,0.062 0.176,0.063 0.125,-0.324 -0.176,-0.071 z m 0.648,0.246 -0.117,0.336 0.332,0.117 0.121,-0.336 z m 0.66,0.23 -0.109,0.34 0.312,0.102 0.028,0.012 0.105,-0.336 -0.023,-0.008 z m 0.672,0.223 -0.109,0.336 0.179,0.051 0.164,0.051 0.098,-0.336 -0.156,-0.051 z m 0.672,0.203 -0.105,0.336 0.066,0.02 0.281,0.082 0.094,-0.34 -0.277,-0.078 z m 0.672,0.192 -0.09,0.339 0.34,0.094 0.09,-0.34 z m 0.68,0.183 -0.09,0.344 0.34,0.082 0.089,-0.34 z m 0.675,0.172 -0.082,0.34 0.344,0.082 0.082,-0.34 z m 0.692,0.16 -0.086,0.344 0.344,0.082 0.082,-0.348 z m 0.679,0.156 -0.074,0.34 0.344,0.078 0.078,-0.347 z m 0.688,0.149 -0.066,0.344 0.339,0.066 0.075,-0.344 z m 0.687,0.133 -0.066,0.347 0.344,0.071 0.066,-0.348 z m 0.692,0.136 -0.063,0.348 0.344,0.063 0.066,-0.344 z m 0.691,0.129 -0.062,0.348 0.347,0.059 0.063,-0.348 z m 0.696,0.121 -0.059,0.348 0.039,0.004 0.277,0.086 0.102,-0.348 -0.301,-0.082 z m 0.695,0.196 -0.102,0.336 0.301,0.093 0.035,0.012 0.106,-0.34 -0.032,-0.008 z m 0.676,0.211 -0.106,0.336 0.297,0.097 0.035,0.008 0.113,-0.336 -0.039,-0.012 z m 0.668,0.218 -0.106,0.336 0.336,0.11 0.109,-0.336 z m 0.675,0.223 -0.117,0.336 0.332,0.113 0.114,-0.332 z m 0.664,0.234 -0.113,0.332 0.031,0.008 0.297,0.114 0.121,-0.332 -0.296,-0.11 z m 0.668,0.247 -0.121,0.324 0.328,0.121 0.118,-0.328 z m 0.664,0.246 -0.136,0.328 0.336,0.125 0.125,-0.324 z m 0.653,0.254 -0.125,0.328 0.183,0.07 0.141,0.059 0.133,-0.325 -0.149,-0.062 z m 0.656,0.261 -0.129,0.328 0.098,0.039 0.222,0.094 0.137,-0.324 -0.222,-0.094 z m 0.656,0.278 -0.14,0.32 0.035,0.016 0.289,0.128 0.137,-0.328 -0.286,-0.125 z m 0.645,0.277 -0.145,0.32 0.321,0.149 0.148,-0.325 z m 0.644,0.293 -0.144,0.32 0.316,0.149 0.153,-0.317 z m 0.645,0.301 -0.156,0.316 0.316,0.149 0.156,-0.317 z m 0.633,0.312 -0.16,0.313 0.316,0.16 0.156,-0.317 z m 0.633,0.321 -0.172,0.312 0.316,0.168 0.164,-0.313 z m 0.621,0.339 -0.172,0.305 0.308,0.168 0.168,-0.305 z m 0.617,0.348 -0.184,0.301 0.305,0.183 0.176,-0.308 z m 0.609,0.367 -0.187,0.293 0.289,0.184 0.004,0.004 0.195,-0.297 -0.016,-0.004 z m 0.594,0.379 -0.195,0.297 0.293,0.191 0.199,-0.289 -0.059,-0.043 z m 0.586,0.402 -0.203,0.286 0.172,0.125 0.105,0.082 0.219,-0.282 -0.117,-0.089 z m 0.574,0.422 -0.215,0.278 0.102,0.078 0.172,0.137 0.218,-0.27 -0.175,-0.145 z m 0.551,0.446 -0.223,0.269 0.246,0.211 0.016,0.016 0.238,-0.262 -0.019,-0.016 -0.231,-0.199 z m 0.539,0.476 -0.242,0.254 0.152,0.141 0.098,0.101 0.246,-0.25 -0.102,-0.101 z m 0.5,0.504 -0.25,0.242 0.047,0.051 0.187,0.199 0.262,-0.23 -0.191,-0.211 z m 0.477,0.539 -0.274,0.219 0.117,0.144 0.094,0.129 0.281,-0.211 -0.097,-0.128 z m 0.429,0.574 -0.293,0.2 0.004,0.007 0.137,0.211 0.039,0.071 0.301,-0.176 -0.043,-0.078 -0.141,-0.219 z m 0.363,0.625 -0.312,0.168 0.031,0.055 0.106,0.211 0.011,0.035 0.321,-0.129 -0.016,-0.047 -0.105,-0.23 z m 0.29,0.672 -0.332,0.117 0.031,0.079 0.062,0.222 0.008,0.02 0.34,-0.082 -0.008,-0.032 -0.07,-0.234 z m 0.183,0.707 -0.344,0.063 0.012,0.09 0.031,0.226 v 0.012 l 0.352,-0.016 v -0.031 l -0.031,-0.246 z m -0.285,0.731 v 0.094 l -0.016,0.23 v 0.012 l 0.352,0.043 v -0.028 l 0.016,-0.246 v -0.105 z m -0.066,0.672 -0.016,0.117 -0.055,0.215 0.34,0.086 0.059,-0.231 0.023,-0.125 z m -0.168,0.652 -0.067,0.168 -0.062,0.148 0.32,0.141 0.07,-0.16 0.067,-0.176 z m -0.278,0.625 -0.011,0.023 -0.141,0.243 -0.012,0.023 0.293,0.195 0.02,-0.035 0.152,-0.258 0.016,-0.031 z m -0.351,0.578 -0.129,0.18 -0.071,0.105 0.278,0.207 0.082,-0.101 0.129,-0.188 z m -0.418,0.551 -0.11,0.133 -0.117,0.125 0.262,0.238 0.125,-0.133 0.109,-0.137 z m -0.461,0.516 -0.125,0.121 -0.121,0.121 0.242,0.25 0.125,-0.117 0.137,-0.137 z m -0.5,0.476 -0.184,0.164 -0.074,0.07 0.227,0.266 0.078,-0.066 0.191,-0.172 z m -0.528,0.449 -0.273,0.223 0.219,0.277 0.273,-0.218 z m -0.55,0.43 -0.094,0.07 -0.191,0.137 0.207,0.285 0.195,-0.14 0.09,-0.067 z m -0.567,0.406 -0.293,0.196 0.188,0.293 h 0.008 l 0.293,-0.204 z m -0.586,0.387 -0.121,0.074 -0.176,0.106 0.188,0.3 0.176,-0.105 0.125,-0.082 z m -0.593,0.363 -0.305,0.176 0.176,0.305 0.304,-0.176 z m -0.61,0.348 -0.304,0.172 0.167,0.312 h 0.004 l 0.309,-0.176 z m -0.617,0.336 -0.191,0.109 -0.114,0.059 0.16,0.308 0.114,-0.058 0.199,-0.106 z m -0.621,0.324 -0.106,0.059 -0.207,0.101 0.157,0.317 0.211,-0.106 0.105,-0.055 z m -0.621,0.316 -0.035,0.012 -0.289,0.137 0.152,0.316 0.285,-0.133 0.035,-0.015 z m -0.637,0.297 -0.32,0.145 0.144,0.324 0.321,-0.148 z m -0.637,0.293 -0.324,0.141 0.141,0.32 0.324,-0.14 z m -0.644,0.274 -0.328,0.144 0.14,0.321 0.321,-0.137 z m -0.652,0.277 -0.325,0.133 0.137,0.328 0.328,-0.133 z m -0.645,0.27 -0.328,0.125 0.125,0.332 0.328,-0.133 z m -0.66,0.257 -0.028,0.008 -0.3,0.117 0.129,0.329 0.296,-0.114 0.036,-0.015 z m -0.656,0.247 -0.11,0.042 -0.219,0.079 0.125,0.332 0.215,-0.078 0.117,-0.047 z m -0.657,0.246 -0.211,0.082 -0.117,0.035 0.117,0.336 0.114,-0.043 0.218,-0.082 z m -0.664,0.234 -0.328,0.125 0.117,0.332 0.328,-0.121 z m -0.664,0.234 -0.328,0.118 0.117,0.335 0.332,-0.117 z m -0.66,0.231 -0.336,0.113 0.113,0.332 0.332,-0.113 z m -0.668,0.226 -0.008,0.004 -0.328,0.102 0.11,0.336 0.328,-0.106 0.011,-0.004 z m -0.668,0.215 -0.215,0.074 -0.121,0.032 0.11,0.34 0.117,-0.036 0.218,-0.078 z m -0.672,0.215 -0.336,0.106 0.106,0.335 0.336,-0.105 z m -0.668,0.207 -0.336,0.106 0.102,0.332 0.336,-0.098 z m -0.676,0.211 -0.031,0.012 -0.304,0.086 0.101,0.336 0.305,-0.09 0.035,-0.008 z m -0.675,0.199 -0.325,0.094 -0.015,0.008 0.109,0.332 0.016,-0.004 0.316,-0.094 z m -0.68,0.215 -0.328,0.113 0.109,0.336 0.336,-0.117 z m -0.664,0.234 -0.324,0.118 -0.012,0.004 0.125,0.328 0.012,-0.008 0.316,-0.117 z m -0.664,0.243 -0.18,0.07 -0.152,0.062 0.133,0.325 0.144,-0.059 0.18,-0.066 z m -0.66,0.257 -0.106,0.047 -0.218,0.09 0.132,0.328 0.223,-0.093 0.102,-0.043 z m -0.653,0.278 -0.082,0.031 -0.246,0.109 0.141,0.321 0.238,-0.102 0.086,-0.035 z m -0.648,0.281 -0.109,0.047 -0.211,0.105 0.144,0.317 0.215,-0.106 0.102,-0.043 z m -0.645,0.297 -0.156,0.074 -0.164,0.082 0.16,0.317 0.157,-0.082 0.156,-0.071 z m -0.632,0.312 -0.235,0.118 -0.082,0.043 0.16,0.308 0.313,-0.152 z m -0.633,0.325 -0.309,0.168 0.168,0.312 0.309,-0.172 z m -0.621,0.343 -0.055,0.028 -0.254,0.152 0.184,0.301 0.246,-0.145 0.054,-0.031 z m -0.61,0.36 -0.144,0.09 -0.156,0.097 0.191,0.301 0.152,-0.101 0.141,-0.083 z m -0.601,0.387 -0.223,0.148 -0.07,0.051 0.203,0.289 0.066,-0.051 0.223,-0.145 z m -0.582,0.41 -0.285,0.207 -0.004,0.004 0.218,0.273 v 0.004 l 0.278,-0.207 z m -0.563,0.429 -0.027,0.028 -0.246,0.203 0.23,0.269 0.239,-0.207 0.023,-0.015 z m -0.539,0.477 -0.066,0.059 -0.192,0.187 0.246,0.25 0.192,-0.187 0.058,-0.051 z m -0.504,0.508 -0.07,0.082 -0.168,0.195 0.273,0.223 0.157,-0.188 0.066,-0.07 z m -0.457,0.558 -0.054,0.071 -0.153,0.234 0.293,0.188 0.149,-0.215 0.046,-0.063 z m -0.39,0.618 -0.024,0.035 -0.14,0.289 0.316,0.148 0.137,-0.273 0.015,-0.028 z m -0.293,0.675 c -0.039,0.117 -0.075,0.235 -0.098,0.364 l 0.34,0.062 c 0.023,-0.101 0.055,-0.207 0.09,-0.316 z m -0.157,0.719 c -0.011,0.125 -0.015,0.25 -0.015,0.379 l 0.355,-0.012 c -0.004,-0.109 0,-0.215 0.012,-0.324 z m 0.364,0.707 -0.352,0.039 c 0.012,0.129 0.039,0.25 0.07,0.371 l 0.344,-0.09 c -0.027,-0.109 -0.055,-0.214 -0.062,-0.32 z m 0.164,0.641 -0.336,0.117 c 0.039,0.121 0.094,0.234 0.148,0.344 l 0.317,-0.153 c -0.055,-0.105 -0.094,-0.207 -0.129,-0.308 z m 0.289,0.605 -0.309,0.172 c 0.059,0.113 0.133,0.215 0.203,0.313 l 0.285,-0.2 c -0.066,-0.093 -0.128,-0.191 -0.183,-0.285 z m 0.383,0.555 -0.274,0.223 0.098,0.117 0.137,0.16 0.265,-0.235 -0.133,-0.148 z m 0.461,0.512 -0.254,0.25 0.089,0.089 0.168,0.157 0.243,-0.25 z m 0.503,0.468 -0.226,0.27 0.133,0.117 0.14,0.109 0.223,-0.273 -0.137,-0.113 z m 0.54,0.434 -0.211,0.281 0.019,0.012 0.234,0.176 0.04,0.023 0.199,-0.285 -0.035,-0.027 -0.227,-0.164 z m 0.57,0.398 -0.195,0.293 0.179,0.125 0.117,0.071 0.192,-0.297 -0.117,-0.074 z m 0.586,0.375 -0.176,0.305 0.301,0.18 0.179,-0.301 z m 0.601,0.352 -0.164,0.309 0.305,0.167 0.172,-0.304 z m 0.621,0.332 -0.16,0.312 0.313,0.161 0.156,-0.309 z m 0.622,0.312 -0.149,0.325 0.316,0.148 0.149,-0.32 z m 0.632,0.301 -0.144,0.324 0.32,0.141 0.145,-0.324 z m 0.645,0.285 -0.145,0.325 0.137,0.058 0.199,0.078 0.129,-0.328 -0.191,-0.078 z m 0.648,0.262 -0.129,0.328 0.329,0.129 0.121,-0.328 z m 0.657,0.258 -0.129,0.328 0.093,0.039 0.223,0.09 0.141,-0.316 -0.235,-0.102 z m 0.652,0.269 -0.137,0.329 0.328,0.128 0.129,-0.32 z m 0.648,0.27 -0.132,0.324 0.238,0.098 0.086,0.035 0.136,-0.32 -0.085,-0.043 z m 0.653,0.27 -0.133,0.328 0.32,0.136 0.137,-0.324 z m 0.652,0.281 -0.145,0.32 0.329,0.141 0.132,-0.325 z m 0.645,0.277 -0.141,0.324 0.148,0.063 0.176,0.078 0.141,-0.324 -0.176,-0.078 z m 0.644,0.281 -0.141,0.328 0.325,0.141 0.14,-0.32 z m 0.649,0.289 -0.149,0.321 0.324,0.148 0.141,-0.324 z m 0.636,0.293 -0.144,0.321 0.32,0.148 0.148,-0.324 z m 0.649,0.293 -0.153,0.321 0.321,0.148 0.148,-0.316 z m 0.636,0.297 -0.152,0.321 0.27,0.121 0.046,0.027 0.157,-0.32 -0.055,-0.024 z m 0.637,0.301 -0.148,0.324 0.316,0.153 0.152,-0.317 z m 0.633,0.309 -0.149,0.316 0.2,0.098 0.113,0.054 0.156,-0.312 -0.113,-0.059 z m 0.637,0.312 -0.157,0.313 0.317,0.152 0.156,-0.309 z m 0.636,0.313 -0.16,0.316 0.172,0.082 0.141,0.07 0.164,-0.316 -0.149,-0.07 z m 0.625,0.316 -0.16,0.316 0.309,0.161 0.164,-0.317 z m 0.629,0.324 -0.16,0.317 0.168,0.082 0.141,0.074 0.164,-0.309 -0.149,-0.082 z m 0.625,0.328 -0.164,0.313 0.309,0.168 0.168,-0.317 z m 0.621,0.332 -0.164,0.313 0.176,0.094 0.133,0.07 0.164,-0.309 -0.129,-0.078 z m 0.621,0.336 -0.168,0.313 0.18,0.097 0.125,0.067 0.168,-0.305 -0.121,-0.07 z m 0.618,0.348 -0.172,0.305 0.183,0.105 0.118,0.067 0.175,-0.301 -0.117,-0.071 z m 0.613,0.352 -0.176,0.3 0.192,0.11 0.109,0.066 0.184,-0.301 -0.118,-0.07 z m 0.605,0.351 -0.175,0.305 0.195,0.113 0.105,0.07 0.188,-0.304 -0.113,-0.067 z m 0.606,0.371 -0.176,0.293 0.184,0.117 0.109,0.071 0.188,-0.305 -0.114,-0.066 z m 0.605,0.367 -0.187,0.301 0.18,0.11 0.117,0.074 0.187,-0.297 -0.117,-0.074 z m 0.598,0.383 -0.191,0.289 0.16,0.11 0.133,0.082 0.191,-0.293 -0.129,-0.086 z m 0.586,0.383 -0.191,0.293 0.292,0.195 0.2,-0.289 -0.157,-0.105 z m 0.586,0.398 -0.199,0.29 0.109,0.078 0.18,0.125 0.207,-0.286 -0.184,-0.132 z m 0.582,0.411 -0.203,0.281 0.066,0.051 0.207,0.16 0.211,-0.281 -0.211,-0.161 z m 0.566,0.421 -0.207,0.282 0.016,0.015 0.262,0.196 0.211,-0.282 -0.258,-0.199 z m 0.567,0.434 -0.227,0.274 0.281,0.222 0.215,-0.273 z m 0.547,0.449 -0.227,0.27 0.266,0.226 0.226,-0.269 z m 0.535,0.469 -0.235,0.258 0.25,0.223 0.008,0.011 0.246,-0.254 -0.019,-0.011 z m 0.519,0.481 -0.242,0.253 0.137,0.137 0.105,0.11 0.254,-0.247 -0.113,-0.117 z m 0.5,0.503 -0.25,0.247 0.02,0.023 0.207,0.23 0.265,-0.234 -0.21,-0.234 z m 0.477,0.539 -0.274,0.223 0.227,0.27 0.269,-0.223 z m 0.445,0.563 -0.285,0.203 0.086,0.117 0.109,0.168 0.293,-0.199 -0.117,-0.172 z m 0.399,0.602 -0.301,0.179 0.058,0.11 0.11,0.191 0.308,-0.172 -0.109,-0.195 z m 0.336,0.636 -0.317,0.145 0.027,0.07 0.082,0.184 0.02,0.058 0.328,-0.121 -0.023,-0.07 -0.082,-0.192 z m 0.257,0.688 -0.34,0.09 0.043,0.168 0.032,0.164 0.347,-0.071 -0.035,-0.175 z m 0.133,0.715 -0.351,0.039 0.003,0.039 0.012,0.176 -0.004,0.117 0.352,0.008 v -0.129 l -0.008,-0.196 z m -0.367,0.699 -0.008,0.082 -0.035,0.172 -0.02,0.07 0.336,0.09 0.024,-0.086 0.043,-0.188 0.004,-0.093 z m -0.164,0.637 -0.055,0.128 -0.078,0.165 -0.004,0.011 0.305,0.168 0.012,-0.015 0.093,-0.188 0.055,-0.137 z m -0.309,0.601 -0.019,0.031 -0.117,0.164 -0.059,0.071 0.277,0.222 0.067,-0.082 0.125,-0.183 0.023,-0.039 z m -0.41,0.524 -0.16,0.168 0.254,0.242 0.16,-0.164 z"
               style="fill:#000000;fill-opacity:1;fill-rule:nonzero;stroke:none"
               id="path4151" />
          </g>
        </g>
      </g>
    </g>
    <g
       id="g4159"
       transform="matrix(0.872015,0.0395763,-0.04243,1,0,-231)">
      <path
         d="m 340.406,340.243 -14.18,0.417 -10.32,-9.729 -0.425,-14.178 9.733,-10.323 14.18,-0.421 10.324,9.729 0.421,14.182 z"
         style="fill:#93a7ac;fill-opacity:1;fill-rule:nonzero;stroke:#000000;stroke-width:0.693499;stroke-linecap:butt;stroke-linejoin:miter;stroke-miterlimit:4;stroke-dasharray:none;stroke-opacity:1"
         id="path4161" />
    </g>
    <text
       xml:space="preserve"
       style="font-variant:normal;font-weight:normal;font-size:6px;font-family:Arial;-inkscape-font-specification:ArialMT;writing-mode:lr-tb;fill:#000000;fill-opacity:1;fill-rule:nonzero;stroke:none"
       id="text4167"
       x="267.06558"
       y="103.871"><tspan
         x="267.06558 272.06363 275.40054 278.40054 280.06754 283.40445"
         y="103.871"
         sodipodi:role="line"
         id="tspan4163">Master</tspan><tspan
         x="269.56021 272.89713 276.23404 279.57095"
         y="111.371"
         sodipodi:role="line"
         id="tspan4165">node</tspan></text>
    <g
       id="g4169"
       transform="matrix(0.920051,0.429922,-0.395551,1,0,-231)">
      <path
         d="m 367.255,152.949 -13.517,-5.134 5.138,-13.526 13.517,5.142 z"
         style="fill:#93a7ac;fill-opacity:1;fill-rule:nonzero;stroke:#000000;stroke-width:0.620855;stroke-linecap:butt;stroke-linejoin:miter;stroke-miterlimit:4;stroke-dasharray:none;stroke-opacity:1"
         id="path4171" />
    </g>
    <g
       id="g4173"
       transform="translate(0,-231)">
      <g
         id="g4175" />
      <g
         id="g4189">
        <g
           clip-path="url(#clipPath4179)"
           opacity="0.99"
           id="g4187">
          <g
             id="g4185">
            <text
               xml:space="preserve"
               transform="matrix(0.78968001,0,0,1,270.15459,302.41072)"
               style="font-variant:normal;font-weight:normal;font-size:7.672px;font-family:Arial;-inkscape-font-specification:ArialMT;writing-mode:lr-tb;fill:#000000;fill-opacity:1;fill-rule:nonzero;stroke:none"
               id="text4183"><tspan
                 x="0 5.2642808 9.3239374 13.383595"
                 y="0"
                 sodipodi:role="line"
                 id="tspan4181">Node</tspan></text>
          </g>
        </g>
      </g>
    </g>
    <g
       id="g4191"
       transform="matrix(0.920051,0.429922,-0.395551,1,0,-231)">
      <path
         d="m 469.257,145.897 -13.519,-5.138 5.134,-13.519 13.524,5.139 z"
         style="fill:#93a7ac;fill-opacity:1;fill-rule:nonzero;stroke:#000000;stroke-width:0.620855;stroke-linecap:butt;stroke-linejoin:miter;stroke-miterlimit:4;stroke-dasharray:none;stroke-opacity:1"
         id="path4193" />
    </g>
    <g
       id="g4195"
       transform="translate(0,-231)">
      <g
         id="g4197" />
      <g
         id="g4211">
        <g
           clip-path="url(#clipPath4201)"
           opacity="0.99"
           id="g4209">
          <g
             id="g4207">
            <text
               xml:space="preserve"
               transform="matrix(0.78968001,0,0,1,366.792,339.20963)"
               style="font-variant:normal;font-weight:normal;font-size:7.672px;font-family:Arial;-inkscape-font-specification:ArialMT;writing-mode:lr-tb;fill:#000000;fill-opacity:1;fill-rule:nonzero;stroke:none"
               id="text4205"><tspan
                 x="0 5.2642808 9.3239374 13.383595"
                 y="0"
                 sodipodi:role="line"
                 id="tspan4203">Node</tspan></text>
          </g>
        </g>
      </g>
    </g>
    <g
       id="g4213"
       transform="matrix(0.920051,0.429922,-0.395551,1,0,-231)">
      <path
         d="m 455.001,115.225 -13.523,-5.136 5.141,-13.522 13.52,5.14 z"
         style="fill:#93a7ac;fill-opacity:1;fill-rule:nonzero;stroke:#000000;stroke-width:0.620855;stroke-linecap:butt;stroke-linejoin:miter;stroke-miterlimit:4;stroke-dasharray:none;stroke-opacity:1"
         id="path4215" />
    </g>
    <g
       id="g4217"
       transform="translate(0,-231)">
      <g
         id="g4219" />
      <g
         id="g4233">
        <g
           clip-path="url(#clipPath4223)"
           opacity="0.99"
           id="g4231">
          <g
             id="g4229">
            <text
               xml:space="preserve"
               transform="matrix(0.78968001,0,0,1,365.80621,302.41067)"
               style="font-variant:normal;font-weight:normal;font-size:7.672px;font-family:Arial;-inkscape-font-specification:ArialMT;writing-mode:lr-tb;fill:#000000;fill-opacity:1;fill-rule:nonzero;stroke:none"
               id="text4227"><tspan
                 x="0 5.2642808 9.3239374 13.383595"
                 y="0"
                 sodipodi:role="line"
                 id="tspan4225">Node</tspan></text>
          </g>
        </g>
      </g>
    </g>
    <g
       id="g4235"
       transform="matrix(0.920051,0.429922,-0.395551,1,0,-231)">
      <path
         d="m 353,122.28 -13.519,-5.137 5.137,-13.521 13.517,5.142 z"
         style="fill:#93a7ac;fill-opacity:1;fill-rule:nonzero;stroke:#000000;stroke-width:0.620855;stroke-linecap:butt;stroke-linejoin:miter;stroke-miterlimit:4;stroke-dasharray:none;stroke-opacity:1"
         id="path4237" />
    </g>
    <g
       id="g4239"
       transform="translate(0,-231)">
      <g
         id="g4241" />
      <g
         id="g4255">
        <g
           clip-path="url(#clipPath4245)"
           opacity="0.99"
           id="g4253">
          <g
             id="g4251">
            <text
               xml:space="preserve"
               transform="matrix(0.78968001,0,0,1,269.16881,265.61205)"
               style="font-variant:normal;font-weight:normal;font-size:7.672px;font-family:Arial;-inkscape-font-specification:ArialMT;writing-mode:lr-tb;fill:#000000;fill-opacity:1;fill-rule:nonzero;stroke:none"
               id="text4249"><tspan
                 x="0 5.2642808 9.3239374 13.383595"
                 y="0"
                 sodipodi:role="line"
                 id="tspan4247">Node</tspan></text>
          </g>
        </g>
      </g>
    </g>
    <g
       id="g4257"
       transform="matrix(0.920051,0.429922,-0.395551,1,0,-231)">
      <path
         d="m 441.649,84.168 -13.522,-5.135 5.14,-13.523 13.52,5.141 z"
         style="fill:#93a7ac;fill-opacity:1;fill-rule:nonzero;stroke:#000000;stroke-width:0.620855;stroke-linecap:butt;stroke-linejoin:miter;stroke-miterlimit:4;stroke-dasharray:none;stroke-opacity:1"
         id="path4259" />
    </g>
    <g
       id="g4261"
       transform="translate(0,-231)">
      <g
         id="g4263" />
      <g
         id="g4277">
        <g
           clip-path="url(#clipPath4267)"
           opacity="0.99"
           id="g4275">
          <g
             id="g4273">
            <text
               xml:space="preserve"
               transform="matrix(0.78968001,0,0,1,365.80621,265.612)"
               style="font-variant:normal;font-weight:normal;font-size:7.672px;font-family:Arial;-inkscape-font-specification:ArialMT;writing-mode:lr-tb;fill:#000000;fill-opacity:1;fill-rule:nonzero;stroke:none"
               id="text4271"><tspan
                 x="0 5.2642808 9.3239374 13.383595"
                 y="0"
                 sodipodi:role="line"
                 id="tspan4269">Node</tspan></text>
          </g>
        </g>
      </g>
    </g>
    <g
       id="g4721"
       transform="translate(0,-231)">
      <g
         id="g4723" />
      <g
         id="g4737">
        <g
           clip-path="url(#clipPath4727)"
           opacity="0.99"
           id="g4735">
          <g
             id="g4733">
            <text
               xml:space="preserve"
               transform="matrix(0.90558077,0,0,1,42.19578,296.07113)"
               style="font-variant:normal;font-weight:normal;font-size:6.30504px;font-family:Arial;-inkscape-font-specification:ArialMT;writing-mode:lr-tb;fill:#000000;fill-opacity:1;fill-rule:nonzero;stroke:none"
               id="text4731"><tspan
                 x="0 4.9042621 6.656004 8.7556314"
                 y="0"
                 sodipodi:role="line"
                 id="tspan4729">G -4</tspan></text>
          </g>
        </g>
      </g>
    </g>
    <g
       id="g4739"
       transform="translate(0,-231)">
      <path
         d="m 47.785,300.875 v 5.566"
         style="fill:none;stroke:#000000;stroke-width:0.9;stroke-linecap:butt;stroke-linejoin:miter;stroke-miterlimit:4;stroke-dasharray:none;stroke-opacity:1"
         id="path4741" />
    </g>
    <g
       id="g4743"
       transform="translate(0,-231)">
      <path
         d="m 27.094,292.633 v 5.57"
         style="fill:none;stroke:#000000;stroke-width:0.9;stroke-linecap:butt;stroke-linejoin:miter;stroke-miterlimit:4;stroke-dasharray:none;stroke-opacity:1"
         id="path4745" />
    </g>
    <g
       id="g4747"
       transform="translate(0,-231)">
      <g
         id="g4749" />
      <g
         id="g4763">
        <g
           clip-path="url(#clipPath4753)"
           opacity="0.99"
           id="g4761">
          <g
             id="g4759">
            <text
               xml:space="preserve"
               transform="matrix(0.90558077,0,0,1,77.394242,304.90751)"
               style="font-variant:normal;font-weight:normal;font-size:6.30504px;font-family:Arial;-inkscape-font-specification:ArialMT;writing-mode:lr-tb;fill:#000000;fill-opacity:1;fill-rule:nonzero;stroke:none"
               id="text4757"><tspan
                 x="0 4.9042621 6.656004 8.7556314"
                 y="0"
                 sodipodi:role="line"
                 id="tspan4755">G -2</tspan></text>
          </g>
        </g>
      </g>
    </g>
    <g
       id="g4765"
       transform="translate(0,-231)">
      <path
         d="m 82.969,312.031 v 5.567"
         style="fill:none;stroke:#000000;stroke-width:0.9;stroke-linecap:butt;stroke-linejoin:miter;stroke-miterlimit:4;stroke-dasharray:none;stroke-opacity:1"
         id="path4767" />
    </g>
    <g
       id="g4769"
       transform="translate(0,-231)">
      <g
         id="g4771" />
      <g
         id="g4785">
        <g
           clip-path="url(#clipPath4775)"
           opacity="0.99"
           id="g4783">
          <g
             id="g4781">
            <text
               xml:space="preserve"
               transform="matrix(0.90558077,0,0,1,59.777605,301.88209)"
               style="font-variant:normal;font-weight:normal;font-size:6.30504px;font-family:Arial;-inkscape-font-specification:ArialMT;writing-mode:lr-tb;fill:#000000;fill-opacity:1;fill-rule:nonzero;stroke:none"
               id="text4779"><tspan
                 x="0 4.9042621 6.656004 8.7556314"
                 y="0"
                 sodipodi:role="line"
                 id="tspan4777">G -3</tspan></text>
          </g>
        </g>
      </g>
    </g>
    <g
       id="g4787"
       transform="translate(0,-231)">
      <path
         d="m 65.344,307.625 v 5.566"
         style="fill:none;stroke:#000000;stroke-width:0.9;stroke-linecap:butt;stroke-linejoin:miter;stroke-miterlimit:4;stroke-dasharray:none;stroke-opacity:1"
         id="path4789" />
    </g>
    <g
       id="g4791"
       transform="translate(0,-231)">
      <g
         id="g4793" />
      <g
         id="g4807">
        <g
           clip-path="url(#clipPath4797)"
           opacity="0.99"
           id="g4805">
          <g
             id="g4803">
            <text
               xml:space="preserve"
               transform="matrix(0.90558077,0,0,1,95.977653,309.2803)"
               style="font-variant:normal;font-weight:normal;font-size:6.30504px;font-family:Arial;-inkscape-font-specification:ArialMT;writing-mode:lr-tb;fill:#000000;fill-opacity:1;fill-rule:nonzero;stroke:none"
               id="text4801"><tspan
                 x="0 4.9042621 6.656004 8.7556314"
                 y="0"
                 sodipodi:role="line"
                 id="tspan4799">G -1</tspan></text>
          </g>
        </g>
      </g>
    </g>
    <g
       id="g4809"
       transform="translate(0,-231)">
      <path
         d="m 101.531,315.875 v 5.566"
         style="fill:none;stroke:#000000;stroke-width:0.9;stroke-linecap:butt;stroke-linejoin:miter;stroke-miterlimit:4;stroke-dasharray:none;stroke-opacity:1"
         id="path4811" />
    </g>
    <g
       id="g4813"
       transform="translate(0,-231)">
      <g
         id="g4815" />
      <g
         id="g4829">
        <g
           clip-path="url(#clipPath4819)"
           opacity="0.99"
           id="g4827">
          <g
             id="g4825">
            <text
               xml:space="preserve"
               transform="matrix(0.90558077,0,0,1,117.72624,311.36048)"
               style="font-variant:normal;font-weight:normal;font-size:6.30504px;font-family:Arial;-inkscape-font-specification:ArialMT;writing-mode:lr-tb;fill:#000000;fill-opacity:1;fill-rule:nonzero;stroke:none"
               id="text4823"><tspan
                 x="0 4.9042621 6.656004"
                 y="0"
                 sodipodi:role="line"
                 id="tspan4821">G 1</tspan></text>
          </g>
        </g>
      </g>
    </g>
    <g
       id="g4831"
       transform="translate(0,-231)">
      <path
         d="m 122.906,316.719 v 5.566"
         style="fill:none;stroke:#000000;stroke-width:0.9;stroke-linecap:butt;stroke-linejoin:miter;stroke-miterlimit:4;stroke-dasharray:none;stroke-opacity:1"
         id="path4833" />
    </g>
    <g
       id="g4835"
       transform="translate(0,-231)">
      <g
         id="g4837" />
      <g
         id="g4851">
        <g
           clip-path="url(#clipPath4841)"
           opacity="0.99"
           id="g4849">
          <g
             id="g4847">
            <text
               xml:space="preserve"
               transform="matrix(0.90558077,0,0,1,140.14568,321.93157)"
               style="font-variant:normal;font-weight:normal;font-size:6.30504px;font-family:Arial;-inkscape-font-specification:ArialMT;writing-mode:lr-tb;fill:#000000;fill-opacity:1;fill-rule:nonzero;stroke:none"
               id="text4845"><tspan
                 x="0 4.9042621 6.656004"
                 y="0"
                 sodipodi:role="line"
                 id="tspan4843">G 2</tspan></text>
          </g>
        </g>
      </g>
    </g>
    <g
       id="g4853"
       transform="translate(0,-231)">
      <path
         d="m 144.375,327.828 v 5.567"
         style="fill:none;stroke:#000000;stroke-width:0.9;stroke-linecap:butt;stroke-linejoin:miter;stroke-miterlimit:4;stroke-dasharray:none;stroke-opacity:1"
         id="path4855" />
    </g>
    <g
       id="g4857"
       transform="translate(0,-231)">
      <g
         id="g4859" />
      <g
         id="g4873">
        <g
           clip-path="url(#clipPath4863)"
           opacity="0.99"
           id="g4871">
          <g
             id="g4869">
            <text
               xml:space="preserve"
               transform="matrix(0.90558077,0,0,1,157.95959,326.29546)"
               style="font-variant:normal;font-weight:normal;font-size:6.30504px;font-family:Arial;-inkscape-font-specification:ArialMT;writing-mode:lr-tb;fill:#000000;fill-opacity:1;fill-rule:nonzero;stroke:none"
               id="text4867"><tspan
                 x="0 4.9042621 6.656004"
                 y="0"
                 sodipodi:role="line"
                 id="tspan4865">G 3</tspan></text>
          </g>
        </g>
      </g>
    </g>
    <g
       id="g4875"
       transform="translate(0,-231)">
      <path
         d="m 162.563,332.844 v 5.566"
         style="fill:none;stroke:#000000;stroke-width:0.9;stroke-linecap:butt;stroke-linejoin:miter;stroke-miterlimit:4;stroke-dasharray:none;stroke-opacity:1"
         id="path4877" />
    </g>
    <g
       id="g4879"
       transform="translate(0,-231)">
      <g
         id="g4881" />
      <g
         id="g4895">
        <g
           clip-path="url(#clipPath4885)"
           opacity="0.99"
           id="g4893">
          <g
             id="g4891">
            <text
               xml:space="preserve"
               transform="matrix(0.90558077,0,0,1,178.37619,331.65915)"
               style="font-variant:normal;font-weight:normal;font-size:6.30504px;font-family:Arial;-inkscape-font-specification:ArialMT;writing-mode:lr-tb;fill:#000000;fill-opacity:1;fill-rule:nonzero;stroke:none"
               id="text4889"><tspan
                 x="0 4.9042621 6.656004"
                 y="0"
                 sodipodi:role="line"
                 id="tspan4887">G 4</tspan></text>
          </g>
        </g>
      </g>
    </g>
    <g
       id="g4897"
       transform="translate(0,-231)">
      <path
         d="m 183,336.781 v 5.567"
         style="fill:none;stroke:#000000;stroke-width:0.9;stroke-linecap:butt;stroke-linejoin:miter;stroke-miterlimit:4;stroke-dasharray:none;stroke-opacity:1"
         id="path4899" />
    </g>
    <g
       id="g4901"
       transform="translate(0,-231)">
      <g
         id="g4903" />
      <g
         id="g4917">
        <g
           clip-path="url(#clipPath4907)"
           opacity="0.99"
           id="g4915">
          <g
             id="g4913">
            <text
               xml:space="preserve"
               transform="matrix(0.90558077,0,0,1,200.08767,335.92685)"
               style="font-variant:normal;font-weight:normal;font-size:6.30504px;font-family:Arial;-inkscape-font-specification:ArialMT;writing-mode:lr-tb;fill:#000000;fill-opacity:1;fill-rule:nonzero;stroke:none"
               id="text4911"><tspan
                 x="0 4.9042621 6.656004"
                 y="0"
                 sodipodi:role="line"
                 id="tspan4909">G 5</tspan></text>
          </g>
        </g>
      </g>
    </g>
    <g
       id="g4919"
       transform="translate(0,-231)">
      <path
         d="m 204.703,340.719 v 5.566"
         style="fill:none;stroke:#000000;stroke-width:0.9;stroke-linecap:butt;stroke-linejoin:miter;stroke-miterlimit:4;stroke-dasharray:none;stroke-opacity:1"
         id="path4921" />
    </g>
    <g
       id="g4925"
       clip-path="url(#clipPath4929)"
       transform="translate(0,-231)">
      <g
         id="g4931">
        <g
           id="g4933" />
        <g
           id="g5123">
          <g
             clip-path="url(#clipPath4937)"
             id="g5121">
            <g
               id="g5119">
              <g
                 id="g4997">
                <g
                   id="g4995">
                  <g
                     clip-path="url(#clipPath4941)"
                     id="g4993">
                    <g
                       id="g4991">
                      <g
                         id="g4989">
                        <g
                           id="g4987">
                          <g
                             clip-path="url(#clipPath4945)"
                             id="g4985">
                            <g
                               id="g4983">
                              <g
                                 id="g4981">
                                <g
                                   id="g4979">
                                <g
                                   clip-path="url(#clipPath4949)"
                                   id="g4977">
                                <g
                                   id="g4975">
                                <g
                                   transform="scale(0.688115,1)"
                                   id="g4973">
                                <path
                                   d="m 65.43,304.66 0.829,0.285 0.829,0.289 0.829,0.282 0.834,0.289 0.829,0.289 0.829,0.285 0.834,0.281 0.829,0.285 0.834,0.278 0.829,0.285 0.835,0.273 0.828,0.274 0.835,0.273 1.658,0.531 0.834,0.258 0.829,0.258 0.829,0.25 0.834,0.246 0.829,0.242 0.834,0.235 0.829,0.23 0.835,0.223 0.829,0.215 0.834,0.207 0.829,0.203 0.829,0.195 0.834,0.184 0.829,0.183 1.657,0.336 0.835,0.156 0.834,0.153 0.829,0.144 0.835,0.145 0.829,0.133 0.828,0.136 0.835,0.133 1.657,0.25 0.835,0.117 0.829,0.125 0.829,0.114 0.834,0.121 0.834,0.113 0.829,0.121 0.835,0.113 0.829,0.118 0.828,0.121 0.835,0.121 0.829,0.121 0.828,0.125 0.835,0.129 1.658,0.258 1.669,0.289 0.828,0.148 0.829,0.152 0.835,0.161 0.828,0.164 0.829,0.175 0.835,0.176 0.828,0.172 0.829,0.184 0.835,0.183 0.829,0.184 1.669,0.375 1.657,0.375 0.835,0.184 0.828,0.183 0.829,0.18 0.835,0.179 0.829,0.18 0.828,0.168 0.835,0.168 0.829,0.16 0.834,0.157 0.829,0.156 0.834,0.136 0.829,0.137 0.829,0.129 0.834,0.117 0.829,0.11 0.829,0.105 0.835,0.09 0.828,0.082 0.835,0.066 0.829,0.055 0.834,0.047 0.829,0.031 0.834,0.016 0.829,0.004 0.829,-0.008 0.835,-0.02 0.828,-0.031 0.829,-0.039 0.835,-0.047 0.828,-0.058 0.835,-0.055 0.829,-0.07 0.834,-0.067 0.829,-0.074 0.834,-0.07 0.829,-0.082 0.829,-0.067 0.829,-0.078 0.834,-0.066 0.829,-0.071 0.829,-0.062 0.834,-0.055 0.835,-0.051 0.829,-0.043 0.834,-0.031 0.829,-0.023 0.829,-0.016 h 0.834 l 0.829,0.016 0.829,0.023 0.834,0.043 0.829,0.055 0.829,0.078 0.834,0.094 0.835,0.113 0.829,0.133 0.834,0.148 0.829,0.172 0.829,0.188 0.834,0.203 0.829,0.215 0.829,0.234 0.829,0.242 0.834,0.262 0.829,0.273 0.834,0.274 0.829,0.297 0.835,0.293 0.829,0.308 0.834,0.317 0.829,0.32 0.829,0.324 0.834,0.328 0.829,0.332 0.829,0.336 0.834,0.336 0.829,0.336 0.835,0.336 0.828,0.34 0.835,0.332 0.829,0.328 0.834,0.328 0.829,0.321 0.829,0.316 0.834,0.301 0.829,0.304 0.829,0.289 0.829,0.282 0.834,0.277 0.835,0.266 0.828,0.25 0.835,0.25 0.829,0.238 0.828,0.234 0.835,0.223 1.658,0.43 0.834,0.203 0.829,0.199 0.829,0.191 0.834,0.188 0.835,0.184 0.828,0.179 0.835,0.176 0.829,0.168 0.828,0.172 0.835,0.16 0.829,0.16 0.829,0.164 0.834,0.149 1.658,0.316 0.834,0.152 0.835,0.149 1.657,0.305 0.835,0.148 0.829,0.156 0.828,0.149 0.835,0.16 0.829,0.152 0.828,0.16 0.835,0.153 0.829,0.16 0.834,0.16 0.835,0.156 1.657,0.313 0.835,0.16 0.829,0.156 0.828,0.152 0.835,0.157 1.657,0.308 0.835,0.153 0.829,0.148 0.834,0.152 0.835,0.149 2.486,0.433 0.835,0.137 0.828,0.141 0.829,0.129 0.835,0.133 0.828,0.132 0.835,0.125 0.829,0.121 0.834,0.122 0.829,0.117 0.835,0.109 0.828,0.113 0.829,0.102 0.835,0.101 1.657,0.196 0.835,0.09 0.829,0.089 0.834,0.09 0.829,0.078 0.834,0.086 0.829,0.082 0.835,0.075 1.657,0.156 0.829,0.074 0.834,0.074 0.829,0.071 0.829,0.078 0.835,0.074 0.834,0.07 0.829,0.075 0.834,0.07 0.829,0.078 0.829,0.07 0.834,0.078 0.829,0.082 0.829,0.075 0.834,0.082 0.829,0.082 0.829,0.086 0.835,0.082 0.834,0.093 0.829,0.094 0.834,0.098 0.829,0.097 0.829,0.102 0.834,0.109 0.829,0.106 0.829,0.109 0.835,0.117 1.657,0.227 0.835,0.121 0.828,0.121 0.835,0.125 0.829,0.125 0.834,0.121 1.658,0.258 0.834,0.125 0.829,0.129 0.829,0.133 0.834,0.125 0.829,0.133 0.835,0.125 0.828,0.125 0.835,0.132 0.829,0.129 0.834,0.129 1.658,0.25 0.834,0.121 0.829,0.125 0.829,0.114 0.834,0.125 0.829,0.113 0.835,0.117 0.828,0.109 0.835,0.11 0.829,0.109 0.829,0.102 0.834,0.101 0.829,0.098 0.829,0.094 0.834,0.094 0.829,0.085 0.829,0.09 1.669,0.153 0.829,0.082 0.834,0.07 0.829,0.066 0.829,0.063 0.834,0.062 0.829,0.055 0.829,0.051 0.834,0.047 0.829,0.043 0.829,0.039 0.834,0.035 0.835,0.027 0.829,0.024 v 0.019 H 34.674 v -51.914 l 0.834,0.102 0.829,0.109 0.834,0.113 0.829,0.129 0.829,0.133 0.834,0.145 0.829,0.148 0.829,0.152 0.834,0.164 0.829,0.168 0.835,0.18 0.829,0.184 0.834,0.187 0.829,0.192 0.829,0.207 0.834,0.203 1.658,0.429 0.834,0.227 1.658,0.461 0.834,0.238 0.835,0.242 0.829,0.243 0.834,0.25 1.658,0.519 0.834,0.266 0.829,0.262 0.829,0.269 0.834,0.273 0.829,0.274 0.829,0.277 1.669,0.563 0.829,0.281 z"
                                   style="fill:#ececec;fill-opacity:1;fill-rule:nonzero;stroke:#000000;stroke-width:0.231265;stroke-linecap:round;stroke-linejoin:round;stroke-miterlimit:10;stroke-dasharray:none;stroke-opacity:1"
                                   id="path4971" />
                                </g>
                                </g>
                                </g>
                                </g>
                              </g>
                            </g>
                          </g>
                        </g>
                      </g>
                    </g>
                  </g>
                </g>
              </g>
              <g
                 id="g5011">
                <g
                   id="g4999" />
                <g
                   id="g5009">
                  <g
                     clip-path="url(#clipPath4953)"
                     opacity="0.99"
                     id="g5007">
                    <g
                       id="g5005">
                      <text
                         xml:space="preserve"
                         transform="matrix(0.90558077,0,0,1,216.40678,334.44853)"
                         style="font-variant:normal;font-weight:normal;font-size:6.30504px;font-family:Arial;-inkscape-font-specification:ArialMT;writing-mode:lr-tb;fill:#000000;fill-opacity:1;fill-rule:nonzero;stroke:none"
                         id="text5003"><tspan
                           x="0 3.8513696 5.2521477 8.7587099 10.159489 13.312008"
                           y="0"
                           sodipodi:role="line"
                           id="tspan5001">Finish</tspan></text>
                    </g>
                  </g>
                </g>
              </g>
              <g
                 id="g5015">
                <path
                   d="m 224.063,343.063 v 5.566"
                   style="fill:none;stroke:#000000;stroke-width:0.9;stroke-linecap:butt;stroke-linejoin:miter;stroke-miterlimit:4;stroke-dasharray:none;stroke-opacity:1"
                   id="path5013" />
              </g>
              <g
                 id="g5019">
                <path
                   d="m 46.453,256.766 h 177.602 v 8.066 H 46.453 Z"
                   style="fill:#4aabc5;fill-opacity:1;fill-rule:nonzero;stroke:#000000;stroke-width:0.600945;stroke-linecap:butt;stroke-linejoin:miter;stroke-miterlimit:4;stroke-dasharray:none;stroke-opacity:1"
                   id="path5017" />
              </g>
              <g
                 id="g5033">
                <g
                   id="g5021" />
                <g
                   id="g5031">
                  <g
                     clip-path="url(#clipPath4957)"
                     opacity="0.99"
                     id="g5029">
                    <g
                       id="g5027">
                      <text
                         xml:space="preserve"
                         transform="matrix(0.90558078,0,0,1,179.41868,262.42844)"
                         style="font-variant:normal;font-weight:normal;font-size:6.30503px;font-family:Arial;-inkscape-font-specification:ArialMT;writing-mode:lr-tb;fill:#ffffff;fill-opacity:1;fill-rule:nonzero;stroke:none"
                         id="text5025"><tspan
                           x="0 1.7517393 5.2582965 7.010036 10.516593 12.616218 17.868357 21.374914 24.881472 26.282248 29.788803 31.540543 35.0471 36.79884 39.951355 43.457912 44.858688 46.259464"
                           y="0"
                           sodipodi:role="line"
                           id="tspan5023">Intermediate split</tspan></text>
                    </g>
                  </g>
                </g>
              </g>
              <g
                 id="g5037">
                <path
                   d="m 122.758,271.105 h 101.23 v 8.941 h -101.23 z"
                   style="fill:#4e80bd;fill-opacity:1;fill-rule:nonzero;stroke:#000000;stroke-width:0.600999;stroke-linecap:butt;stroke-linejoin:miter;stroke-miterlimit:4;stroke-dasharray:none;stroke-opacity:1"
                   id="path5035" />
              </g>
              <g
                 id="g5051">
                <g
                   id="g5039" />
                <g
                   id="g5049">
                  <g
                     clip-path="url(#clipPath4961)"
                     opacity="0.99"
                     id="g5047">
                    <g
                       id="g5045">
                      <text
                         xml:space="preserve"
                         transform="matrix(0.90558078,0,0,1,180.70113,277.1688)"
                         style="font-variant:normal;font-weight:normal;font-size:6.30503px;font-family:Arial;-inkscape-font-specification:ArialMT;writing-mode:lr-tb;fill:#ffffff;fill-opacity:1;fill-rule:nonzero;stroke:none"
                         id="text5043"><tspan
                           x="0 3.5065572 7.0131145 10.165629 13.672187 15.072963 16.824701 20.331259 23.837816 26.990332 28.391108 30.142845 31.543621 35.050179 38.556736 39.957512 43.464069"
                           y="0"
                           sodipodi:role="line"
                           id="tspan5041">Local positioning</tspan></text>
                    </g>
                  </g>
                </g>
              </g>
              <g
                 id="g5055" />
              <g
                 id="g5059" />
              <g
                 id="g5063" />
              <g
                 id="g5067" />
              <g
                 id="g5071" />
              <g
                 id="g5085">
                <g
                   id="g5073" />
                <g
                   id="g5083">
                  <g
                     clip-path="url(#clipPath4965)"
                     opacity="0.99"
                     id="g5081">
                    <g
                       id="g5079" />
                  </g>
                </g>
              </g>
              <g
                 id="g5099">
                <g
                   id="g5087" />
                <g
                   id="g5097">
                  <g
                     clip-path="url(#clipPath4969)"
                     opacity="0.99"
                     id="g5095">
                    <g
                       id="g5093" />
                  </g>
                </g>
              </g>
            </g>
          </g>
        </g>
      </g>
    </g>
  </g>
</svg>
